<?xml version="1.0" encoding="utf-8"?>
<svg xmlns="http://www.w3.org/2000/svg" viewBox="0 0 7613 11828.3">                          
    <g id="Pins_Ownership" runat="server">

        <g id="pinFacility_2J">
            <a class="far fa-lab3" data-toggle="tooltip" id="twojtooltip" title="CC CCE 2J Cell Therapy Lab" href="CC-CCE-2J_Main.aspx">

                <path class="st3" d="M2551.84 3649.85c-95 95-114.25 236.99-57.93 351.13l-221.41 359.26L2633 4139.9c114.09 56.13 255.89 36.82 350.8-58.09 119.28-119.28 119.28-312.68 0-431.96-119.28-119.28-312.68-119.28-431.96 0zm353.51 353.52c-75.96 75.96-199.11 75.96-275.06 0s-75.96-199.11 0-275.06 199.11-75.96 275.06 0 75.96 199.1 0 275.06z" />
                <circle id="CC_Pharmacy_2J" class="st1" runat="server" cx="2767.82" cy="3865.84" r="194.5" />
            </a>
        </g>

        <g id="pinFacility_3E">
            <a class="far fa-lab4" data-toggle="tooltip" title="CC CCE 3T Cell Therapy Lab"  href="CC-CCE-3T_Main.aspx">

            <path class="st3" d="M1677.88 3589.51c-95 95-114.25 236.99-57.93 351.13l-221.41 359.26 360.5-220.34c114.09 56.13 255.89 36.82 350.8-58.09 119.28-119.28 119.28-312.68 0-431.96-119.28-119.28-312.68-119.28-431.96 0zm353.51 353.52c-75.96 75.96-199.11 75.96-275.06 0-75.96-75.96-75.96-199.11 0-275.06 75.96-75.96 199.11-75.96 275.06 0s75.96 199.1 0 275.06z" />
            <circle id="CC_Pharmacy_3E" class="st1" runat="server" cx="1893.86" cy="3805.5" r="194.5" />
                </a>
        </g>

        <g id="pinFacility_10A">
            <a class="far fa-lab6" href="NCI-Trailer1_Main.aspx"   title="NCI Trailer 10A">
            <path class="st3" d="M1568.89 3340.55c95-95 114.25-236.99 57.93-351.13l221.41-359.26-360.5 220.34c-114.09-56.13-255.89-36.82-350.8 58.09-119.28 119.28-119.28 312.68 0 431.96 119.28 119.28 312.68 119.28 431.96 0zm-353.51-353.52c75.96-75.96 199.11-75.96 275.06 0 75.96 75.96 75.96 199.11 0 275.06-75.96 75.96-199.11 75.96-275.06 0-75.96-75.95-75.96-199.1 0-275.06z" />
            <circle id="CC_Other_10A"  runat="server" class="st1" cx="1352.91" cy="3124.57" r="194.5" />
                </a>
        </g>

        <g id="pinFacility_10B">
            <a class="far fa-lab5" href="NCI-Trailer2_Main.aspx"   title="NCI Trailer 10B">
            <path class="st3" d="M1132.54 2073.69c95 95 236.99 114.25 351.13 57.93l359.26 221.41-220.34-360.5c56.13-114.09 36.82-255.89-58.09-350.8-119.28-119.28-312.68-119.28-431.96 0-119.28 119.28-119.28 312.68 0 431.96zm353.52-353.52c75.96 75.96 75.96 199.11 0 275.06-75.96 75.96-199.11 75.96-275.06 0-75.96-75.96-75.96-199.11 0-275.06 75.95-75.95 199.1-75.95 275.06 0z" />
            <circle id="CC_Other_10B" runat="server" class="st1" cx="1348.52" cy="1857.71" r="194.5" />
                </a>
        </g>

        <g id="pinFacility_PET_B3">
            <a class="far fa-lab8"  href="B3-PET_Main.aspx"  title="CC PET B3 Radiochemistry">
            <path class="st3" d="M3349.62 1581.68c-95 95-114.25 236.99-57.93 351.13l-221.41 359.26 360.5-220.34c114.09 56.13 255.89 36.82 350.8-58.09 119.28-119.28 119.28-312.68 0-431.96-119.28-119.28-312.67-119.28-431.96 0zm353.52 353.52c-75.96 75.96-199.11 75.96-275.06 0-75.96-75.96-75.96-199.11 0-275.06 75.96-75.96 199.11-75.96 275.06 0 75.95 75.95 75.95 199.1 0 275.06z" />
            <circle id="NCI_Facility_PET_B3" runat="server" class="st1" cx="3565.61" cy="1797.67" r="194.5" />
                </a>
        </g>

        <g id="pinFacility_NMD">
            <a class="far fa-labten"  href="CC-NMD_Radio_Main.aspx"  title="CC NMD Radiopharmacy">
            <path class="st3" d="M3972.1,2978.1c-95-95-237-114.2-351.1-57.9l-359.3-221.4,220.4,360.5c-56.2,114.1-36.9,255.9,58,350.8,119.3,119.3,312.7,119.3,432,0S4091.4,3097.4,3972.1,2978.1Zm-353.5,353.5c-76-75.9-76-199.1,0-275a194.5,194.5,0,0,1,275.1,0c75.9,75.9,75.9,199.1,0,275A194.5,194.5,0,0,1,3618.6,3331.6Z" style="fill-opacity: 0.25;stroke: #000;stroke-linecap: round;stroke-linejoin: round" />
            <circle id="NCI_Facility_NMD" runat="server" class="st1" cx="3756.1" cy="3194.1" r="194.5" />
                </a>
        </g>

        <g id="pinFacility_P_IVAU">
            <a class="far fa-lab15" title="CC Pharmacy P-IVAU"  href="P-IVAU_Main.aspx">
            <path class="st3" d="M5871,1202c-95,95-114.2,237-57.9,351.1l-221.4,359.3L5952.2,1692c114.1,56.2,255.9,36.9,350.8-58,119.3-119.3,119.3-312.7,0-432S5990.3,1082.7,5871,1202Zm353.6,353.5c-76,76-199.2,76-275.1,0s-76-199.1,0-275.1,199.1-75.9,275.1,0S6300.5,1479.6,6224.6,1555.5Z" style="fill-opacity: 0.25;stroke: #000;stroke-linecap: round;stroke-linejoin: round" />
            <circle id="CCE_Facility_P_IVAU" runat="server" class="st1" cx="6087" cy="1418" r="194.5" />
                </a>
        </g>

        <g id="pinFacility_East_Terrace">
            <a class="far fa-lab16" title="CC CCE East Terrace Modular"  href="CC-CCE-NCI_Main.aspx">
            <path class="st3" d="M6194.4,2401.8c95,95,237,114.3,351.1,58l359.3,221.4-220.4-360.5c56.2-114.1,36.9-255.9-58.1-350.8-119.2-119.3-312.6-119.3-431.9,0S6075.1,2282.6,6194.4,2401.8Zm353.5-353.5a194.5,194.5,0,0,1,0,275.1c-76,75.9-199.1,75.9-275.1,0s-75.9-199.1,0-275.1S6471.9,1972.4,6547.9,2048.3Z" style="fill-opacity: 0.25;stroke: #000;stroke-linecap: round;stroke-linejoin: round" />
            <circle id="CC_Pharmacy_East_Terrace" runat="server" class="st1" cx="6410.4" cy="2185.9" r="194.5" />
                </a>
        </g>

        <g id="pinFacility_I_IVAU">
            <a href="I-IVAU_Main.aspx" class="far fa-ivau" data-toggle="tooltip" title="CC Pharmacy I-IVAU">
                <path class="st3" d="M5417.6,2970c-95,95-114.2,237-57.9,351.1l-221.4,359.3L5498.8,3460c114.1,56.2,255.9,36.9,350.8-58.1,119.3-119.2,119.3-312.6,0-431.9S5536.9,2850.7,5417.6,2970Zm353.6,353.5c-76,76-199.2,76-275.1,0a194.5,194.5,0,0,1,0-275.1c75.9-75.9,199.1-75.9,275.1,0S5847.1,3247.5,5771.2,3323.5Z" style="fill-opacity: 0.25;stroke: #000;stroke-linecap: round;stroke-linejoin: round" />
                <circle id="CCE_Facility_I_IVAU" runat="server" class="st1" cx="5633.6" cy="3186" r="194.5" />
            </a>
        </g>

        <g id="pinFacility_2E">
            <a class="far fa-lab13" title="CC CCE 12 East Cell Therapy" href="CC-CCE-12E_Main.aspx" >
            <path class="st3" d="M6124.81 4647.94c-95-95-236.99-114.25-351.13-57.93l-359.26-221.41 220.34 360.5c-56.13 114.09-36.82 255.89 58.09 350.8 119.28 119.28 312.68 119.28 431.96 0 119.29-119.28 119.29-312.68 0-431.96zm-353.51 353.51c-75.96-75.96-75.96-199.11 0-275.06 75.96-75.96 199.11-75.96 275.06 0 75.96 75.96 75.96 199.11 0 275.06-75.95 75.96-199.1 75.96-275.06 0z" />
            <circle id="CC_Pharmacy_2E" runat="server" class="st1" cx="5908.83" cy="4863.92" r="194.5" />
                </a>
        </g>

        <g id="pinFacility_HPC13">
            <a class="far fa-lab7" href="NCY_Hyperpolarized_C13_Main.aspx"   title="NCI Hyperpolarized Cell Labeling Lab">
            <path class="st3" d="M6568.1 6441.99c-95-95-236.99-114.25-351.13-57.93l-359.26-221.41 220.34 360.5c-56.13 114.09-36.82 255.89 58.09 350.8 119.28 119.28 312.68 119.28 431.96 0s119.28-312.67 0-431.96zm-353.52 353.52c-75.96-75.96-75.96-199.11 0-275.06 75.96-75.96 199.11-75.96 275.06 0s75.96 199.11 0 275.06-199.1 75.95-275.06 0z" />
            <circle id="CC_Other_HP13" runat="server" class="st1" cx="6351.75" cy="6657.98" r="194.5" />
            </a>
        </g>

        <g id="pinOwnership_Facility_Other">
            <a class="far fa-labOne"  title="NCI Surgery Branch TIL Modular Facility"  href="NCI-Mod_Main.aspx"  >
            <path class="st3" d="M3639.09 8304.34c-95-95-236.99-114.25-351.13-57.93L2928.7 8025l220.34 360.5c-56.13 114.09-36.82 255.89 58.09 350.8 119.28 119.28 312.68 119.28 431.96 0 119.28-119.28 119.28-312.67 0-431.96zm-353.51 353.52c-75.96-75.96-75.96-199.11 0-275.07s199.11-75.96 275.06 0c75.96 75.96 75.96 199.11 0 275.06s-199.11 75.96-275.06.01z" />
            <circle id="CC_Other_T_30" runat="server" class="st1" cx="3423.11" cy="8520.32" r="194.5" />
                </a>
        </g>

        <g id="pinOwnership_Facility_NIAID">
            <a class="far fa-lab2" href="NIAID_29B_Bio_Facility_Main.aspx" title="NIAID 29B Bioreactor Pilot Plant">
            <path class="st3" d="M1180.85 10244.69c-95 95-114.25 236.99-57.93 351.13l-221.41 359.26 360.5-220.34c114.09 56.13 255.89 36.82 350.8-58.09 119.28-119.28 119.28-312.68 0-431.96-119.28-119.28-312.68-119.28-431.96 0zm353.51 353.51c-75.96 75.96-199.11 75.96-275.06 0-75.96-75.96-75.96-199.11 0-275.06 75.96-75.96 199.11-75.96 275.06 0 75.96 75.96 75.96 199.11 0 275.06z" />
            <circle id="NIAID_29B" runat="server" cx="1396.83" cy="10460.67" r="194.5" class="st1" stroke="#000" stroke-miterlimit="10" />
                </a>
        </g>

        <g id="pinFacility_1B42">
            <a class="far fa-lab11"  href="NCI-1B42_Main.aspx" title="NCI Surgery Branch 1B42">
            <path class="st3" d="M5071.5 5836.78c95-95 114.25-236.99 57.93-351.13l221.41-359.26-360.5 220.34c-114.09-56.13-255.89-36.82-350.8 58.09-119.28 119.28-119.28 312.68 0 431.96 119.28 119.28 312.68 119.28 431.96 0zm-353.51-353.52c75.96-75.96 199.11-75.96 275.06 0 75.96 75.96 75.96 199.11 0 275.06-75.96 75.96-199.11 75.96-275.06 0s-75.96-199.1 0-275.06z" />
            <circle id="CC_Other_HP13_1b42" runat="server" class="st1" cx="4855.52" cy="5620.79" r="194.5" />
                </a>
        </g>

        <g id="pinFacility_DLM_Image">
            <a class="far fa-lab14"  href="CC-DLM-Lab_Main.aspx" title="CC DLM Sterility Lab">
            <path class="st3" d="M3738.65 4701.06c95-95 114.25-236.99 57.93-351.13l221.41-359.26-360.5 220.34c-114.09-56.13-255.89-36.82-350.8 58.09-119.28 119.28-119.28 312.68 0 431.96 119.28 119.29 312.68 119.29 431.96 0zm-353.51-353.51c75.96-75.96 199.11-75.96 275.06 0 75.96 75.96 75.96 199.11 0 275.06-75.96 75.96-199.11 75.96-275.06 0-75.96-75.95-75.96-199.11 0-275.06z" />
            <circle id="NCI_Facility_DLM_Image" runat="server" class="st1" cx="3522.67" cy="4485.08" r="194.5" />
                </a>
        </g>

        <g id="pinFacility_PET_Radiopharm">
            <a class="far fa-lab9"  href="B1-PET_Main.aspx" title="CC PET Radiopharmacy">
            <path class="st3" d="M2262.85 2113.21c95 95 236.99 114.25 351.13 57.93l359.26 221.41-220.34-360.5c56.13-114.09 36.82-255.89-58.09-350.8-119.28-119.28-312.68-119.28-431.96 0-119.28 119.28-119.28 312.68 0 431.96zm353.52-353.51c75.96 75.96 75.96 199.11 0 275.06s-199.11 75.96-275.06 0c-75.96-75.96-75.96-199.11 0-275.06 75.95-75.96 199.1-75.96 275.06 0z" />
            <circle id="NCI_Facility_PET_Radiopharm" runat="server" class="st1" cx="2478.84" cy="1897.23" r="194.5" />
                </a>
        </g>
    </g>
</svg>