<?xml version="1.0" encoding="utf-8"?>
<svg xmlns="http://www.w3.org/2000/svg" viewBox="0 0 612.98 590">
    <g id="pinsFID17">
        <g id="pin1C166A5A1">
            <circle id="pinBack1C166A5A1" class="stGray" cx="475.1" cy="556.5" r="15" />
            <circle id="pinColor1C166A5A1" class="stWhite" cx="475.1" cy="556.5" r="10" />
        </g>
        <g id="pin1C166A5A">
            <circle id="pinBack1C166A5A" class="stGray" cx="536.4" cy="487.8" r="15" />
            <circle id="pinColor1C166A5A" class="stWhite" cx="536.4" cy="487.8" r="10" />
        </g>
        <g id="pin1C166A5B">
            <circle id="pinBack1C166A5B" class="stGray" cx="429" cy="487.8" r="15" />
            <circle id="pinColor1C166A5B" class="stWhite" cx="429" cy="487.8" r="10" />
        </g>
        <g id="pin1C166A5">
            <circle id="pinBack1C166A5" class="stGray" cx="570.6" cy="420.3" r="15" />
            <circle id="pinColor1C166A5" class="stWhite" cx="570.6" cy="420.3" r="10" />
        </g>
        <g id="pin1C166A5B1">
            <circle id="pinBack1C166A5B1" class="stGray" cx="379.8" cy="420.3" r="15" />
            <circle id="pinColor1C166A5B1" class="stWhite" cx="379.8" cy="420.3" r="10" />
        </g>
        <g id="pin1C166A1">
            <circle id="pinBack1C166A1" class="stGray" cx="536.4" cy="210.1" r="15" />
            <circle id="pinColor1C166A1" class="stWhite" cx="536.4" cy="210.1" r="10" />
        </g>
        <g id="pin1C166A4">
            <circle id="pinBack1C166A4" class="stGray" cx="581.5" cy="335.4" r="15" />
            <circle id="pinColor1C166A4" class="stWhite" cx="581.5" cy="335.4" r="10" />
        </g>
        <g id="pin1C166A3">
            <circle id="pinBack1C166A3" class="stGray" cx="523" cy="335.4" r="15" />
            <circle id="pinColor1C166A3" class="stWhite" cx="523" cy="335.4" r="10" />
        </g>
        <g id="pin1C166A7A">
            <circle id="pinBack1C166A7A" class="stGray" cx="330" cy="437.9" r="15" />
            <circle id="pinColor1C166A7A" class="stWhite" cx="330" cy="437.9" r="10" />
        </g>
        <g id="pin1C166A7B">
            <circle id="pinBack1C166A7B" class="stGray" cx="306" cy="539.8" r="15" />
            <circle id="pinColor1C166A7B" class="stWhite" cx="306" cy="539.8" r="10" />
        </g>
        <g id="pin1C166A7">
            <circle id="pinBack1C166A7" class="stGray" cx="193.5" cy="486.8" r="15" />
            <circle id="pinColor1C166A7" class="stWhite" cx="193.5" cy="486.8" r="10" />
        </g>
        <g id="pin1C166A7C">
            <circle id="pinBack1C166A7C" class="stGray" cx="224.8" cy="532.7" r="15" />
            <circle id="pinColor1C166A7C" class="stWhite" cx="224.8" cy="532.7" r="10" />
        </g>
        <g id="pin1C166A7D">
            <circle id="pinBack1C166A7D" class="stGray" cx="144.1" cy="544.6" r="15" />
            <circle id="pinColor1C166A7D" class="stWhite" cx="144.1" cy="544.6" r="10" />
        </g>
        <g id="pin1C166A7E">
            <circle id="pinBack1C166A7E" class="stGray" cx="163.5" cy="434.1" r="15" />
            <circle id="pinColor1C166A7E" class="stWhite" cx="163.5" cy="434.1" r="10" />
        </g>
        <g id="pin1C166A">
            <circle id="pinBack1C166A" class="stGray" cx="280.3" cy="385.8" r="15" />
            <circle id="pinColor1C166A" class="stWhite" cx="280.3" cy="385.8" r="10" />
        </g>
        <g id="pin1C166A9">
            <circle id="pinBack1C166A9" class="stGray" cx="97.8" cy="453.2" r="15" />
            <circle id="pinColor1C166A9" class="stWhite" cx="97.8" cy="453.2" r="10" />
        </g>
        <g id="pin1C166A9A">
            <circle id="pinBack1C166A9A" class="stGray" cx="49.8" cy="544.6" r="15" />
            <circle id="pinColor1C166A9A" class="stWhite" cx="49.8" cy="544.6" r="10" />
        </g>
        <g id="pin1C166A9B">
            <circle id="pinBack1C166A9B" class="stGray" cx="37.9" cy="434.1" r="15" />
            <circle id="pinColor1C166A9B" class="stWhite" cx="37.9" cy="434.1" r="10" />
        </g>
        <g id="pin1C166B">
            <circle id="pinBack1C166B" class="stGray" cx="388.2" cy="96.1" r="15" />
            <circle id="pinColor1C166B" class="stWhite" cx="388.2" cy="96.1" r="10" />
        </g>
        <g id="pin1C166B1">
            <circle id="pinBack1C166B1" class="stGray" cx="234" cy="96.1" r="15" />
            <circle id="pinColor1C166B1" class="stWhite" cx="234" cy="96.1" r="10" />
        </g>
        <g id="pin1C166C">
            <circle id="pinBack1C166C" class="stGray" cx="438.3" cy="274.1" r="15" />
            <circle id="pinColor1C166C" class="stWhite" cx="438.3" cy="274.1" r="10" />
        </g>
        <g id="pin1C166C1">
            <circle id="pinBack1C166C1" class="stGray" cx="427.3" cy="346.3" r="15" />
            <circle id="pinColor1C166C1" class="stWhite" cx="427.3" cy="346.3" r="10" />
        </g>
        <g id="pin1C166D">
            <circle id="pinBack1C166D" class="stGray" cx="381.3" cy="327.9" r="15" />
            <circle id="pinColor1C166D" class="stWhite" cx="381.3" cy="327.9" r="10" />
        </g>
        <g id="pin1C166D1">
            <circle id="pinBack1C166D1" class="stGray" cx="386.3" cy="266.4" r="15" />
            <circle id="pinColor1C166D1" class="stWhite" cx="386.3" cy="266.4" r="10" />
        </g>
        <g id="pin1C166D1A">
            <circle id="pinBack1C166D1A" class="stGray" cx="326.7" cy="304.1" r="15" />
            <circle id="pinColor1C166D1A" class="stWhite" cx="326.7" cy="304.1" r="10" />
        </g>
        <g id="pin1C166G">
            <circle id="pinBack1C166G" class="stGray" cx="141.7" cy="334.4" r="15" />
            <circle id="pinColor1C166G" class="stWhite" cx="141.7" cy="334.4" r="10" />
        </g>
        <g id="pin1C166G1">
            <circle id="pinBack1C166G1" class="stGray" cx="187.7" cy="304.1" r="15" />
            <circle id="pinColor1C166G1" class="stWhite" cx="187.7" cy="304.1" r="10" />
        </g>
        <g id="pin1C166G1A">
            <circle id="pinBack1C166G1A" class="stGray" cx="234.7" cy="274.1" r="15" />
            <circle id="pinColor1C166G1A" class="stWhite" cx="234.7" cy="274.1" r="10" />
        </g>
    </g>
</svg>