<?xml version="1.0" encoding="utf-8"?>
<svg xmlns="http://www.w3.org/2000/svg" viewBox="0 0 792 612">
    <g id="dPArrowsFID11">
        <g id="pin100A1_100_DP">
            <polygon id="pinBack100A1_100_DP" class="stGray" points="194.99 125.99 209.96 110.49 200.95 110.49 200.95 86.23 189.02 86.23 189.02 110.49 179.96 110.49 194.99 125.99" />
            <polygon id="pinColor100A1_100_DP" class="stWhite" points="194.98 123.14 205.28 112.47 198.96 112.47 198.96 88.21 191 88.21 191 112.47 184.65 112.47 194.98 123.14" />
        </g>
        <g id="pin100A1_Vest1_3_DP">
            <polygon id="pinBack100A1_Vest1_3_DP" class="stGray" points="375.14 103 359.63 88.03 359.63 97.04 335.37 97.04 335.37 108.97 359.63 108.97 359.63 118.03 375.14 103" />
            <polygon id="pinColor100A1_Vest1_3_DP" class="stWhite" points="372.28 103 361.62 92.7 361.62 99.02 337.36 99.02 337.36 106.98 361.62 106.98 361.62 113.34 372.28 103" />
        </g>
        <g id="pin100B1_Vest1_3_DP">
            <polygon id="pinBack100B1_Vest1_3_DP" class="stGray" points="387.73 97.11 372.75 112.61 381.76 112.61 381.76 136.87 393.69 136.87 393.69 112.61 402.75 112.61 387.73 97.11" />
            <polygon id="pinColor100B1_Vest1_3_DP" class="stWhite" points="387.73 99.96 377.43 110.63 383.75 110.63 383.75 134.89 391.71 134.89 391.71 110.63 398.07 110.63 387.73 99.96" />
        </g>
        <g id="pin100C4_100B1_DP">
            <polygon id="pinBack100C4_100B1_DP" class="stGray" points="369.93 129.85 354.96 145.35 363.97 145.35 363.97 169.62 375.9 169.62 375.9 145.35 384.96 145.35 369.93 129.85" />
            <polygon id="pinColor100C4_100B1_DP" class="stWhite" points="369.93 132.71 359.63 143.37 365.95 143.37 365.95 167.63 373.91 167.63 373.91 143.37 380.27 143.37 369.93 132.71" />
        </g>
        <g id="pin100C4_100C_DP">
            <polygon id="pinBack100C4_100C_DP" class="stGray" points="339.1 209.09 354.6 224.06 354.6 215.06 378.86 215.06 378.86 203.13 354.6 203.13 354.6 194.06 339.1 209.09" />
            <polygon id="pinColor100C4_100C_DP" class="stWhite" points="341.95 209.09 352.62 219.39 352.62 213.07 376.88 213.07 376.88 205.11 352.62 205.11 352.62 198.75 341.95 209.09" />
        </g>
        <g id="pin100D_100_DP">
            <polygon id="pinBack100D_100_DP" class="stGray" points="231.69 298.95 247.19 313.92 247.19 304.91 271.45 304.91 271.45 292.98 247.19 292.98 247.19 283.92 231.69 298.95" />
            <polygon id="pinColor100D_100_DP" class="stWhite" points="234.54 298.95 245.2 309.25 245.2 302.93 269.46 302.93 269.46 294.97 245.2 294.97 245.2 288.61 234.54 298.95" />
        </g>
        <g id="pin100D1_100C4_DP">
            <polygon id="pinBack100D1_100C4_DP" class="stGray" points="368.95 227.1 353.98 242.6 362.99 242.6 362.99 266.86 374.92 266.86 374.92 242.6 383.98 242.6 368.95 227.1" />
            <polygon id="pinColor100D1_100C4_DP" class="stWhite" points="368.96 229.95 358.66 240.61 364.98 240.61 364.98 264.88 372.94 264.88 372.94 240.61 379.3 240.61 368.96 229.95" />
        </g>
        <g id="pin100D1_100D_DP">
            <polygon id="pinBack100D1_100D_DP" class="stGray" points="300.42 294.16 315.92 309.13 315.92 300.12 340.18 300.12 340.18 288.19 315.92 288.19 315.92 279.13 300.42 294.16" />
            <polygon id="pinColor100D1_100D_DP" class="stWhite" points="303.27 294.15 313.93 304.45 313.93 298.13 338.19 298.13 338.19 290.17 313.93 290.17 313.93 283.81 303.27 294.15" />
        </g>
        <g id="pin100D1_100D5_DP">
            <polygon id="pinBack100D1_100D5_DP" class="stGray" points="356.78 337.75 371.75 322.25 362.75 322.25 362.75 297.99 350.82 297.99 350.82 322.25 341.75 322.25 356.78 337.75" />
            <polygon id="pinColor100D1_100D5_DP" class="stWhite" points="356.78 334.9 367.08 324.23 360.76 324.23 360.76 299.97 352.8 299.97 352.8 324.23 346.44 324.23 356.78 334.9" />
        </g>
        <g id="pin100D1_Vest1_2_DP">
            <polygon id="pinBack100D1_Vest1_2_DP" class="stGray" points="317.08 256.69 332.58 271.67 332.58 262.66 356.85 262.66 356.85 250.73 332.58 250.73 332.58 241.66 317.08 256.69" />
            <polygon id="pinColor100D1_Vest1_2_DP" class="stWhite" points="319.94 256.69 330.6 266.99 330.6 260.67 354.86 260.67 354.86 252.71 330.6 252.71 330.6 246.35 319.94 256.69" />
        </g>
        <g id="pin100D2_100D1_DP">
            <polygon id="pinBack100D2_100D1_DP" class="stGray" points="400.69 235.07 415.67 219.57 406.66 219.57 406.66 195.31 394.73 195.31 394.73 219.57 385.67 219.57 400.69 235.07" />
            <polygon id="pinColor100D2_100D1_DP" class="stWhite" points="400.69 232.22 410.99 221.56 404.67 221.56 404.67 197.29 396.71 197.29 396.71 221.56 390.35 221.56 400.69 232.22" />
        </g>
        <g id="pin100D2A_100D2_DP">
            <polygon id="pinBack100D2A_100D2_DP" class="stGray" points="457.28 181.65 441.78 166.67 441.78 175.68 417.51 175.68 417.51 187.61 441.78 187.61 441.78 196.67 457.28 181.65" />
            <polygon id="pinColor100D2A_100D2_DP" class="stWhite" points="454.42 181.65 443.76 171.35 443.76 177.67 419.5 177.67 419.5 185.63 443.76 185.63 443.76 191.99 454.42 181.65" />
        </g>
        <g id="pin100D3_100D1_DP">
            <polygon id="pinBack100D3_100D1_DP" class="stGray" points="398.78 252.63 414.28 267.6 414.28 258.59 438.54 258.59 438.54 246.66 414.28 246.66 414.28 237.6 398.78 252.63" />
            <polygon id="pinColor100D3_100D1_DP" class="stWhite" points="401.63 252.62 412.3 262.92 412.3 256.6 436.56 256.6 436.56 248.64 412.3 248.64 412.3 242.28 401.63 252.62" />
        </g>
        <g id="pin100D3A_100D3_DP">
            <polygon id="pinBack100D3A_100D3_DP" class="stGray" points="502.34 286.29 486.83 271.32 486.83 280.33 462.57 280.33 462.57 292.26 486.83 292.26 486.83 301.32 502.34 286.29" />
            <polygon id="pinColor100D3A_100D3_DP" class="stWhite" points="499.48 286.29 488.82 275.99 488.82 282.31 464.56 282.31 464.56 290.27 488.82 290.27 488.82 296.63 499.48 286.29" />
        </g>
        <g id="pin100D4_100D1_DP">
            <polygon id="pinBack100D4_100D1_DP" class="stGray" points="395.76 341.94 410.73 326.44 401.72 326.44 401.72 302.18 389.79 302.18 389.79 326.44 380.73 326.44 395.76 341.94" />
            <polygon id="pinColor100D4_100D1_DP" class="stWhite" points="395.76 339.09 406.06 328.42 399.74 328.42 399.74 304.16 391.77 304.16 391.77 328.42 385.42 328.42 395.76 339.09" />
        </g>
        <g id="pin100D4A_100D4_DP">
            <polygon id="pinBack100D4A_100D4_DP" class="stGray" points="458.42 367.24 442.92 352.27 442.92 361.28 418.66 361.28 418.66 373.21 442.92 373.21 442.92 382.27 458.42 367.24" />
            <polygon id="pinColor100D4A_100D4_DP" class="stWhite" points="455.57 367.25 444.9 356.95 444.9 363.26 420.64 363.26 420.64 371.23 444.9 371.23 444.9 377.58 455.57 367.25" />
        </g>
        <g id="pin100D5_100D5A_DP">
            <polygon id="pinBack100D5_100D5A_DP" class="stGray" points="356.88 420.79 371.85 405.28 362.84 405.28 362.84 381.02 350.91 381.02 350.91 405.28 341.85 405.28 356.88 420.79" />
            <polygon id="pinColor100D5_100D5A_DP" class="stWhite" points="356.87 417.93 367.17 407.27 360.85 407.27 360.85 383.01 352.89 383.01 352.89 407.27 346.53 407.27 356.87 417.93" />
        </g>
        <g id="pin100D5A_100_DP">
            <polygon id="pinBack100D5A_100_DP" class="stGray" points="231.69 439.09 247.19 454.06 247.19 445.06 271.45 445.06 271.45 433.13 247.19 433.13 247.19 424.06 231.69 439.09" />
            <polygon id="pinColor100D5A_100_DP" class="stWhite" points="234.54 439.09 245.2 449.39 245.2 443.07 269.46 443.07 269.46 435.11 245.2 435.11 245.2 428.75 234.54 439.09" />
        </g>
        <g id="pin100D5A_Outdoor_DP">
            <polygon id="pinBack100D5A_Outdoor_DP" class="stGray" points="354.88 514.83 369.85 499.32 360.84 499.32 360.84 475.06 348.91 475.06 348.91 499.32 339.85 499.32 354.88 514.83" />
            <polygon id="pinColor100D5A_Outdoor_DP" class="stWhite" points="354.88 511.97 365.18 501.31 358.86 501.31 358.86 477.05 350.9 477.05 350.9 501.31 344.54 501.31 354.88 511.97" />
        </g>
        <g id="pinVest1_2_100C_DP">
            <polygon id="pinBackVest1_2_100C_DP" class="stGray" points="263.72 260.35 279.22 275.32 279.22 266.31 303.48 266.31 303.48 254.38 279.22 254.38 279.22 245.32 263.72 260.35" />
            <polygon id="pinColorVest1_2_100C_DP" class="stWhite" points="266.57 260.35 277.23 270.64 277.23 264.33 301.5 264.33 301.5 256.37 277.23 256.37 277.23 250.01 266.57 260.35" />
        </g>
    </g>
</svg>