<?xml version="1.0" encoding="utf-8"?>
<svg xmlns="http://www.w3.org/2000/svg" viewBox="0 0 792 612">
    <g id="dPArrowsFID19">
        <g id="pinB3B402A_B3B402_DP">
            <polygon id="pinBackB3B402A_B3B402_DP" class="stGray" points="225.89 449.18 296.06 516.95 296.06 476.17 405.89 476.17 405.89 422.16 296.06 422.16 296.06 381.14 225.89 449.18" />
            <polygon id="pinColorB3B402A_B3B402_DP" class="stWhite" points="238.81 449.16 287.08 495.78 287.08 467.18 396.91 467.18 396.91 431.14 287.08 431.14 287.08 402.36 238.81 449.16" />
        </g>
        <g id="pinB3B402_Corr_DP">
            <polygon id="pinBackB3B402_Corr_DP" class="stGray" points="4.3 449.18 74.47 516.95 74.47 476.17 184.3 476.17 184.3 422.16 74.47 422.16 74.47 381.14 4.3 449.18" />
            <polygon id="pinColorB3B402_Corr_DP" class="stWhite" points="17.22 449.16 65.49 495.78 65.49 467.18 175.32 467.18 175.32 431.14 65.49 431.14 65.49 402.36 17.22 449.16" />
        </g>
    </g>
</svg>