<?xml version="1.0" encoding="utf-8"? viewBox="0 0 369.7 328.9">
<svg xmlns="http://www.w3.org/2000/svg">
    <g id="dPArrowsFID10">
        <g id="pin1B42A_1B42_DP">
            <polygon id="pinBack1B42A_1B42_DP" class="stGray" points="234.99 91.56 215.46 72.7 215.46 84.05 184.9 84.05 184.9 99.08 215.46 99.08 215.46 110.5 234.99 91.56" />
            <polygon id="pinColor1B42A_1B42_DP" class="stWhite" points="231.4 91.56 217.96 78.59 217.96 86.55 187.4 86.55 187.4 96.58 217.96 96.58 217.96 104.59 231.4 91.56" />
        </g>
        <g id="pin1B42A_1B42A1_DP">
            <polygon id="pinBack1B42A_1B42A1_DP" class="stGray" points="113.9 91.63 133.43 110.5 133.43 99.14 163.99 99.14 163.99 84.11 133.43 84.11 133.43 72.7 113.9 91.63" />
            <polygon id="pinColor1B42A_1B42A1_DP" class="stWhite" points="117.49 91.63 130.93 104.61 130.93 96.64 161.49 96.64 161.49 86.61 130.93 86.61 130.93 78.61 117.49 91.63" />
        </g>
        <g id="pin1B42_1C1_DP">
            <polygon id="pinBack1B42_1C1_DP" class="stGray" points="319.99 91.56 300.46 72.7 300.46 84.05 269.9 84.05 269.9 99.08 300.46 99.08 300.46 110.5 319.99 91.56" />
            <polygon id="pinColor1B42_1C1_DP" class="stWhite" points="316.4 91.56 302.96 78.59 302.96 86.55 272.4 86.55 272.4 96.58 302.96 96.58 302.96 104.59 316.4 91.56" />
        </g>
    </g>
</svg>