<?xml version="1.0" encoding="utf-8"?>
<svg xmlns="http://www.w3.org/2000/svg" viewBox="0 0 612.98 590">
    <g id="dPArrowsFID17">
        <g id="pin1C166A3_1C166A_DP">
            <polygon id="pinBack1C166A3_1C166A_DP" class="stGray" points="531.6 334.46 512.74 353.99 524.09 353.99 524.09 384.55 539.12 384.55 539.12 353.99 550.54 353.99 531.6 334.46" />
            <polygon id="pinColor1C166A3_1C166A_DP" class="stWhite" points="531.61 338.05 518.63 351.49 526.59 351.49 526.59 382.05 536.62 382.05 536.62 351.49 544.63 351.49 531.61 338.05" />
        </g>
        <g id="pin1C166A4_1C166A_DP">
            <polygon id="pinBack1C166A4_1C166A_DP" class="stGray" points="572.4 335 553.54 354.53 564.89 354.53 564.89 385.1 579.92 385.1 579.92 354.53 591.33 354.53 572.4 335" />
            <polygon id="pinColor1C166A4_1C166A_DP" class="stWhite" points="572.4 338.6 559.43 352.03 567.39 352.03 567.39 382.6 577.42 382.6 577.42 352.03 585.43 352.03 572.4 338.6" />
        </g>
        <g id="pin1C166A5_1C166A_DP">
            <polygon id="pinBack1C166A5_1C166A_DP" class="stGray" points="589.3 377.46 570.43 396.99 581.78 396.99 581.78 427.55 596.82 427.55 596.82 396.99 608.23 396.99 589.3 377.46" />
            <polygon id="pinColor1C166A5_1C166A_DP" class="stWhite" points="589.3 381.05 576.32 394.49 584.28 394.49 584.28 425.05 594.31 425.05 594.31 394.49 602.32 394.49 589.3 381.05" />
        </g>
        <g id="pin1C166A6_1C166A_DP">
            <polygon id="pinBack1C166A6_1C166A_DP" class="stGray" points="460.86 428.1 479.72 408.57 468.37 408.57 468.37 378.01 453.34 378.01 453.34 408.57 441.93 408.57 460.86 428.1" />
            <polygon id="pinColor1C166A6_1C166A_DP" class="stWhite" points="460.86 424.51 473.83 411.07 465.87 411.07 465.87 380.51 455.84 380.51 455.84 411.07 447.83 411.07 460.86 424.51" />
        </g>
        <g id="pin1C166A9_1C166A_DP">
            <polygon id="pinBack1C166A9_1C166A_DP" class="stGray" points="97.45 445.22 116.31 425.69 104.96 425.69 104.96 395.13 89.93 395.13 89.93 425.69 78.52 425.69 97.45 445.22" />
            <polygon id="pinColor1C166A9_1C166A_DP" class="stWhite" points="97.45 441.63 110.42 428.19 102.46 428.19 102.46 397.63 92.43 397.63 92.43 428.19 84.42 428.19 97.45 441.63" />
        </g>
        <g id="pin1C166A9B_1C166A_DP">
            <polygon id="pinBack1C166A9B_1C166A_DP" class="stGray" points="36.32 384.2 63.47 383.73 55.44 375.71 77.06 354.09 66.43 343.46 44.81 365.08 36.74 357.01 36.32 384.2" />
            <polygon id="pinColor1C166A9B_1C166A_DP" class="stWhite" points="38.86 381.66 57.53 381.33 51.91 375.71 73.52 354.09 66.43 347 44.81 368.61 39.15 362.95 38.86 381.66" />
        </g>
        <g id="pin1C166C_1C166A_DP">
            <polygon id="pinBack1C166C_1C166A_DP" class="stGray" points="494.07 310.79 474.54 291.93 474.54 303.28 443.98 303.28 443.98 318.31 474.54 318.31 474.54 329.72 494.07 310.79" />
            <polygon id="pinColor1C166C_1C166A_DP" class="stWhite" points="490.48 310.79 477.04 297.82 477.04 305.78 446.48 305.78 446.48 315.81 477.04 315.81 477.04 323.82 490.48 310.79" />
        </g>
        <g id="pin1C166C1_1C166A_DP">
            <polygon id="pinBack1C166C1_1C166A_DP" class="stGray" points="440.79 350.9 460.32 369.76 460.32 358.41 490.88 358.41 490.88 343.38 460.32 343.38 460.32 331.97 440.79 350.9" />
            <polygon id="pinColor1C166C1_1C166A_DP" class="stWhite" points="444.38 350.9 457.81 363.87 457.81 355.91 488.38 355.91 488.38 345.88 457.81 345.88 457.81 337.87 444.38 350.9" />
        </g>
        <g id="pin1C166D_1C166A_DP">
            <polygon id="pinBack1C166D_1C166A_DP" class="stGray" points="375.63 394.81 394.49 375.28 383.14 375.28 383.14 344.72 368.11 344.72 368.11 375.28 356.7 375.28 375.63 394.81" />
            <polygon id="pinColor1C166D_1C166A_DP" class="stWhite" points="375.63 391.22 388.6 377.78 380.64 377.78 380.64 347.22 370.61 347.22 370.61 377.78 362.6 377.78 375.63 391.22" />
        </g>
        <g id="pin1C166G_1C166A_DP">
            <polygon id="pinBack1C166G_1C166A_DP" class="stGray" points="137.25 391.81 156.11 372.28 144.76 372.28 144.76 341.72 129.73 341.72 129.73 372.28 118.31 372.28 137.25 391.81" />
            <polygon id="pinColor1C166G_1C166A_DP" class="stWhite" points="137.24 388.22 150.22 374.78 142.26 374.78 142.26 344.22 132.23 344.22 132.23 374.78 124.22 374.78 137.24 388.22" />
        </g>
        <g id="pin1C166A7A_1C166A_DP">
            <polygon id="pinBack1C166A7A_1C166A_DP" class="stGray" points="278.5 377.46 259.64 396.99 270.99 396.99 270.99 427.55 286.02 427.55 286.02 396.99 297.44 396.99 278.5 377.46" />
            <polygon id="pinColor1C166A7A_1C166A_DP" class="stWhite" points="278.5 381.05 265.53 394.49 273.49 394.49 273.49 425.05 283.52 425.05 283.52 394.49 291.53 394.49 278.5 381.05" />
        </g>
        <g id="pin1C166B_1C166A1_DP">
            <polygon id="pinBack1C166B_1C166A1_DP" class="stGray" points="490.85 142.25 471.98 161.78 483.33 161.78 483.33 192.34 498.36 192.34 498.36 161.78 509.78 161.78 490.85 142.25" />
            <polygon id="pinColor1C166B_1C166A1_DP" class="stWhite" points="490.85 145.85 477.87 159.28 485.83 159.28 485.83 189.85 495.86 189.85 495.86 159.28 503.87 159.28 490.85 145.85" />
        </g>
        <g id="pin1C166A5A_1C166A5_DP">
            <polygon id="pinBack1C166A5A_1C166A5_DP" class="stGray" points="552.5 411.16 533.64 430.69 544.99 430.69 544.99 461.25 560.02 461.25 560.02 430.69 571.43 430.69 552.5 411.16" />
            <polygon id="pinColor1C166A5A_1C166A5_DP" class="stWhite" points="552.5 414.75 539.53 428.19 547.49 428.19 547.49 458.75 557.52 458.75 557.52 428.19 565.53 428.19 552.5 414.75" />
        </g>
        <g id="pin1C166A5A1_1C166A5A_DP">
            <polygon id="pinBack1C166A5A1_1C166A5A_DP" class="stGray" points="511.7 512.51 492.84 532.03 504.19 532.03 504.19 562.6 519.22 562.6 519.22 532.03 530.64 532.03 511.7 512.51" />
            <polygon id="pinColor1C166A5A1_1C166A5A_DP" class="stWhite" points="511.71 516.1 498.73 529.53 506.69 529.53 506.69 560.1 516.72 560.1 516.72 529.53 524.73 529.53 511.71 516.1" />
        </g>
        <g id="pin1C166A5B_1C166A5A1_DP">
            <polygon id="pinBack1C166A5B_1C166A5A1_DP" class="stGray" points="438.36 563.14 457.22 543.62 445.87 543.62 445.87 513.05 430.84 513.05 430.84 543.62 419.42 543.62 438.36 563.14" />
            <polygon id="pinColor1C166A5B_1C166A5A1_DP" class="stWhite" points="438.35 559.55 451.33 546.12 443.37 546.12 443.37 515.55 433.34 515.55 433.34 546.12 425.33 546.12 438.35 559.55" />
        </g>
        <g id="pin1C166A7_1C166A7A_DP">
            <polygon id="pinBack1C166A7_1C166A7A_DP" class="stGray" points="283.5 433.7 264.64 453.23 275.99 453.23 275.99 483.8 291.02 483.8 291.02 453.23 302.44 453.23 283.5 433.7" />
            <polygon id="pinColor1C166A7_1C166A7A_DP" class="stWhite" points="283.5 437.3 270.53 450.73 278.49 450.73 278.49 481.3 288.52 481.3 288.52 450.73 296.53 450.73 283.5 437.3" />
        </g>
        <g id="pin1C166A7B_1C166A7_DP">
            <polygon id="pinBack1C166A7B_1C166A7_DP" class="stGray" points="275.57 541.17 294.43 521.65 283.08 521.65 283.08 491.08 268.05 491.08 268.05 521.65 256.63 521.65 275.57 541.17" />
            <polygon id="pinColor1C166A7B_1C166A7_DP" class="stWhite" points="275.56 537.58 288.54 524.15 280.58 524.15 280.58 493.58 270.55 493.58 270.55 524.15 262.54 524.15 275.56 537.58" />
        </g>
        <g id="pin1C166A7C_1C166A7_DP">
            <polygon id="pinBack1C166A7C_1C166A7_DP" class="stGray" points="188.92 540.6 207.78 521.07 196.43 521.07 196.43 490.5 181.4 490.5 181.4 521.07 169.98 521.07 188.92 540.6" />
            <polygon id="pinColor1C166A7C_1C166A7_DP" class="stWhite" points="188.91 537 201.89 523.57 193.93 523.57 193.93 493 183.9 493 183.9 523.57 175.89 523.57 188.91 537" />
        </g>
        <g id="pin1C166A7D_1C166A7_DP">
            <polygon id="pinBack1C166A7D_1C166A7_DP" class="stGray" points="151.25 541.05 170.12 521.52 158.77 521.52 158.77 490.95 143.74 490.95 143.74 521.52 132.32 521.52 151.25 541.05" />
            <polygon id="pinColor1C166A7D_1C166A7_DP" class="stWhite" points="151.25 537.46 164.23 524.02 156.27 524.02 156.27 493.45 146.24 493.45 146.24 524.02 138.23 524.02 151.25 537.46" />
        </g>
        <g id="pin1C166A7E_1C166A7_DP">
            <polygon id="pinBack1C166A7E_1C166A7_DP" class="stGray" points="133.28 434.25 114.42 453.78 125.77 453.78 125.77 484.35 140.8 484.35 140.8 453.78 152.22 453.78 133.28 434.25" />
            <polygon id="pinColor1C166A7E_1C166A7_DP" class="stWhite" points="133.29 437.85 120.31 451.28 128.27 451.28 128.27 481.85 138.3 481.85 138.3 451.28 146.31 451.28 133.29 437.85" />
        </g>
        <g id="pin1C166A7F_1C166A7_DP">
            <polygon id="pinBack1C166A7F_1C166A7_DP" class="stGray" points="244.59 433.2 225.73 452.73 237.08 452.73 237.08 483.3 252.11 483.3 252.11 452.73 263.53 452.73 244.59 433.2" />
            <polygon id="pinColor1C166A7F_1C166A7_DP" class="stWhite" points="244.6 436.8 231.62 450.23 239.58 450.23 239.58 480.8 249.61 480.8 249.61 450.23 257.62 450.23 244.6 436.8" />
        </g>
        <g id="pin1C166A9A_1C166A9_DP">
            <polygon id="pinBack1C166A9A_1C166A9_DP" class="stGray" points="88.46 540.05 107.32 520.52 95.97 520.52 95.97 489.95 80.94 489.95 80.94 520.52 69.53 520.52 88.46 540.05" />
            <polygon id="pinColor1C166A9A_1C166A9_DP" class="stWhite" points="88.46 536.46 101.43 523.02 93.47 523.02 93.47 492.45 83.44 492.45 83.44 523.02 75.43 523.02 88.46 536.46" />
        </g>
        <g id="pin1C166A9B_1C166A9_DP">
            <polygon id="pinBack1C166A9B_1C166A9_DP" class="stGray" points="29.43 480.34 48.96 499.2 48.96 487.85 79.53 487.85 79.53 472.82 48.96 472.82 48.96 461.4 29.43 480.34" />
            <polygon id="pinColor1C166A9B_1C166A9_DP" class="stWhite" points="33.02 480.33 46.46 493.31 46.46 485.35 77.03 485.35 77.03 475.32 46.46 475.32 46.46 467.31 33.02 480.33" />
        </g>
        <g id="pin1C166B1_1C166B_DP">
            <polygon id="pinBack1C166B1_1C166B_DP" class="stGray" points="273.48 122.19 293.01 141.05 293.01 129.7 323.58 129.7 323.58 114.67 293.01 114.67 293.01 103.25 273.48 122.19" />
            <polygon id="pinColor1C166B1_1C166B_DP" class="stWhite" points="277.08 122.18 290.51 135.16 290.51 127.2 321.08 127.2 321.08 117.17 290.51 117.17 290.51 109.16 277.08 122.18" />
        </g>
        <g id="pin1C166D1_1C166D_DP">
            <polygon id="pinBack1C166D1_1C166D_DP" class="stGray" points="371.12 331.98 389.98 312.45 378.63 312.45 378.63 281.89 363.6 281.89 363.6 312.45 352.19 312.45 371.12 331.98" />
            <polygon id="pinColor1C166D1_1C166D_DP" class="stWhite" points="371.12 328.39 384.09 314.95 376.13 314.95 376.13 284.39 366.1 284.39 366.1 314.95 358.09 314.95 371.12 328.39" />
        </g>
        <g id="pin1C166D1A_1C166D1_DP">
            <polygon id="pinBack1C166D1A_1C166D1_DP" class="stGray" points="327.14 264.07 346.67 282.94 346.67 271.59 377.24 271.59 377.24 256.56 346.67 256.56 346.67 245.14 327.14 264.07" />
            <polygon id="pinColor1C166D1A_1C166D1_DP" class="stWhite" points="330.74 264.07 344.17 277.05 344.17 269.09 374.74 269.09 374.74 259.06 344.17 259.06 344.17 251.05 330.74 264.07" />
        </g>
        <g id="pin1C166G1_1C166G_DP">
            <polygon id="pinBack1C166G1_1C166G_DP" class="stGray" points="145.07 344.25 164.6 363.11 164.6 351.76 195.16 351.76 195.16 336.73 164.6 336.73 164.6 325.32 145.07 344.25" />
            <polygon id="pinColor1C166G1_1C166G_DP" class="stWhite" points="148.66 344.25 162.1 357.22 162.1 349.26 192.66 349.26 192.66 339.23 162.1 339.23 162.1 331.22 148.66 344.25" />
        </g>
        <g id="pin1C166G1A_1C166G1_DP">
            <polygon id="pinBack1C166G1A_1C166G1_DP" class="stGray" points="182.73 315.98 202.26 334.84 202.26 323.49 232.82 323.49 232.82 308.46 202.26 308.46 202.26 297.05 182.73 315.98" />
            <polygon id="pinColor1C166G1A_1C166G1_DP" class="stWhite" points="186.32 315.98 199.76 328.95 199.76 320.99 230.32 320.99 230.32 310.96 199.76 310.96 199.76 302.95 186.32 315.98" />
        </g>
    </g>
</svg>