<?xml version="1.0" encoding="utf-8"?>
<svg xmlns="http://www.w3.org/2000/svg" viewBox="0 0 612 310.6">
    <g id="dPArrowsFID3">
        <g id="pin2N3072_2N3071_DP">
            <polygon id="pinBack2N3072_2N3071_DP" class="stGray" points="97.84 85.79 82.87 101.29 91.88 101.29 91.88 125.55 103.81 125.55 103.81 101.29 112.87 101.29 97.84 85.79" />
            <polygon id="pinColor2N3072_2N3071_DP" class="stWhite" points="97.85 88.64 87.55 99.31 93.87 99.31 93.87 123.57 101.83 123.57 101.83 99.31 108.19 99.31 97.85 88.64" />
        </g>
        <g id="pin2N3073_2N3072_DP">
            <polygon id="pinBack2N3073_2N3072_DP" class="stGray" points="102.86 166.09 118.36 181.06 118.36 172.05 142.63 172.05 142.63 160.12 118.36 160.12 118.36 151.06 102.86 166.09" />
            <polygon id="pinColor2N3073_2N3072_DP" class="stWhite" points="105.72 166.09 116.38 176.39 116.38 170.07 140.64 170.07 140.64 162.11 116.38 162.11 116.38 155.75 105.72 166.09" />
        </g>
        <g id="pin2N3074_2N3073_DP">
            <polygon id="pinBack2N3074_2N3073_DP" class="stGray" points="508.77 166.68 493.27 151.71 493.27 160.72 469.01 160.72 469.01 172.65 493.27 172.65 493.27 181.71 508.77 166.68" />
            <polygon id="pinColor2N3074_2N3073_DP" class="stWhite" points="505.92 166.69 495.25 156.39 495.25 162.71 470.99 162.71 470.99 170.67 495.25 170.67 495.25 177.02 505.92 166.69" />
        </g>
        <g id="pin2N307A_2N3073_DP">
            <polygon id="pinBack2N307A_2N3073_DP" class="stGray" points="333.63 107.8 318.66 123.31 327.67 123.31 327.67 147.57 339.6 147.57 339.6 123.31 348.66 123.31 333.63 107.8" />
            <polygon id="pinColor2N307A_2N3073_DP" class="stWhite" points="333.64 110.66 323.34 121.32 329.66 121.32 329.66 145.58 337.62 145.58 337.62 121.32 343.98 121.32 333.64 110.66" />
        </g>
        <g id="pin2N307B_2N3073_DP">
            <polygon id="pinBack2N307B_2N3073_DP" class="stGray" points="266.46 157.24 281.43 141.74 272.42 141.74 272.42 117.48 260.49 117.48 260.49 141.74 251.43 141.74 266.46 157.24" />
            <polygon id="pinColor2N307B_2N3073_DP" class="stWhite" points="266.46 154.39 276.75 143.73 270.44 143.73 270.44 119.46 262.48 119.46 262.48 143.73 256.12 143.73 266.46 154.39" />
        </g>
        <g id="pin2N307C_2N3073_DP">
            <polygon id="pinBack2N307C_2N3073_DP" class="stGray" points="206.83 158 221.81 142.5 212.8 142.5 212.8 118.24 200.87 118.24 200.87 142.5 191.81 142.5 206.83 158" />
            <polygon id="pinColor2N307C_2N3073_DP" class="stWhite" points="206.83 155.14 217.13 144.48 210.81 144.48 210.81 120.22 202.85 120.22 202.85 144.48 196.49 144.48 206.83 155.14" />
        </g>
        <g id="pin2N307D_2N3073_DP">
            <polygon id="pinBack2N307D_2N3073_DP" class="stGray" points="162.16 114.79 147.19 130.29 156.2 130.29 156.2 154.55 168.13 154.55 168.13 130.29 177.19 130.29 162.16 114.79" />
            <polygon id="pinColor2N307D_2N3073_DP" class="stWhite" points="162.16 117.64 151.86 128.31 158.18 128.31 158.18 152.57 166.14 152.57 166.14 128.31 172.5 128.31 162.16 117.64" />
        </g>
        <g id="pin2N307G_2N3073_DP">
            <polygon id="pinBack2N307G_2N3073_DP" class="stGray" points="163.16 158.06 148.19 173.56 157.2 173.56 157.2 197.82 169.13 197.82 169.13 173.56 178.19 173.56 163.16 158.06" />
            <polygon id="pinColor2N307G_2N3073_DP" class="stWhite" points="163.16 160.91 152.86 171.58 159.18 171.58 159.18 195.84 167.14 195.84 167.14 171.58 173.5 171.58 163.16 160.91" />
        </g>
        <g id="pin2N307H_2N3073_DP">
            <polygon id="pinBack2N307H_2N3073_DP" class="stGray" points="204.78 158.5 189.81 174 198.81 174 198.81 198.26 210.74 198.26 210.74 174 219.81 174 204.78 158.5" />
            <polygon id="pinColor2N307H_2N3073_DP" class="stWhite" points="204.78 161.35 194.48 172.01 200.8 172.01 200.8 196.27 208.76 196.27 208.76 172.01 215.12 172.01 204.78 161.35" />
        </g>
        <g id="pin2N307J_2N3073_DP">
            <polygon id="pinBack2N307J_2N3073_DP" class="stGray" points="325.53 154.06 310.56 169.56 319.56 169.56 319.56 193.82 331.5 193.82 331.5 169.56 340.56 169.56 325.53 154.06" />
            <polygon id="pinColor2N307J_2N3073_DP" class="stWhite" points="325.53 156.91 315.23 167.58 321.55 167.58 321.55 191.84 329.51 191.84 329.51 167.58 335.87 167.58 325.53 156.91" />
        </g>
        <g id="pin2N307K_2N3073_DP">
            <polygon id="pinBack2N307K_2N3073_DP" class="stGray" points="356.6 153.93 341.63 169.43 350.64 169.43 350.64 193.69 362.57 193.69 362.57 169.43 371.63 169.43 356.6 153.93" />
            <polygon id="pinColor2N307K_2N3073_DP" class="stWhite" points="356.61 156.78 346.31 167.45 352.63 167.45 352.63 191.71 360.59 191.71 360.59 167.45 366.95 167.45 356.61 156.78" />
        </g>
        <g id="pin2N307L_2N3073_DP">
            <polygon id="pinBack2N307L_2N3073_DP" class="stGray" points="449.25 157.93 434.28 173.43 443.29 173.43 443.29 197.69 455.22 197.69 455.22 173.43 464.28 173.43 449.25 157.93" />
            <polygon id="pinColor2N307L_2N3073_DP" class="stWhite" points="449.25 160.78 438.95 171.45 445.27 171.45 445.27 195.71 453.23 195.71 453.23 171.45 459.59 171.45 449.25 160.78" />
        </g>
        <g id="pin2N308D_2N3073_DP">
            <polygon id="pinBack2N308D_2N3073_DP" class="stGray" points="474.94 159.61 489.92 144.11 480.91 144.11 480.91 119.85 468.98 119.85 468.98 144.11 459.92 144.11 474.94 159.61" />
            <polygon id="pinColor2N308D_2N3073_DP" class="stWhite" points="474.94 156.76 485.24 146.09 478.92 146.09 478.92 121.83 470.96 121.83 470.96 146.09 464.6 146.09 474.94 156.76" />
        </g>
        <g id="pin2N2J1_2N3074_DP">
            <polygon id="pinBack2N2J1_2N3074_DP" class="stGray" points="560.96 165.03 545.46 150.06 545.46 159.07 521.2 159.07 521.2 171 545.46 171 545.46 180.06 560.96 165.03" />
            <polygon id="pinColor2N2J1_2N3074_DP" class="stWhite" points="558.11 165.03 547.45 154.74 547.45 161.05 523.18 161.05 523.18 169.01 547.45 169.01 547.45 175.37 558.11 165.03" />
        </g>
        <g id="pin2N308_2N3074_DP">
            <polygon id="pinBack2N308_2N3074_DP" class="stGray" points="505.69 158.57 520.66 143.06 511.65 143.06 511.65 118.8 499.72 118.8 499.72 143.06 490.66 143.06 505.69 158.57" />
            <polygon id="pinColor2N308_2N3074_DP" class="stWhite" points="505.69 155.71 515.99 145.05 509.67 145.05 509.67 120.79 501.71 120.79 501.71 145.05 495.35 145.05 505.69 155.71" />
        </g>
        <g id="pin2N308_2N308A_DP">
            <polygon id="pinBack2N308_2N308A_DP" class="stGray" points="581.05 74 566.08 89.5 575.09 89.5 575.09 113.76 587.02 113.76 587.02 89.5 596.08 89.5 581.05 74" />
            <polygon id="pinColor2N308_2N308A_DP" class="stWhite" points="581.05 76.85 570.75 87.51 577.07 87.51 577.07 111.77 585.03 111.77 585.03 87.51 591.39 87.51 581.05 76.85" />
        </g>
        <g id="pin2N308A_2N308C_DP">
            <polygon id="pinBack2N308A_2N308C_DP" class="stGray" points="571.96 60.86 556.46 45.89 556.46 54.9 532.2 54.9 532.2 66.83 556.46 66.83 556.46 75.89 571.96 60.86" />
            <polygon id="pinColor2N308A_2N308C_DP" class="stWhite" points="569.11 60.86 558.45 50.56 558.45 56.88 534.18 56.88 534.18 64.84 558.45 64.84 558.45 71.2 569.11 60.86" />
        </g>
        <g id="pin2N308C_2N308D_DP">
            <polygon id="pinBack2N308C_2N308D_DP" class="stGray" points="432.85 76 417.88 91.5 426.89 91.5 426.89 115.76 438.82 115.76 438.82 91.5 447.88 91.5 432.85 76" />
            <polygon id="pinColor2N308C_2N308D_DP" class="stWhite" points="432.85 78.85 422.55 89.51 428.87 89.51 428.87 113.77 436.83 113.77 436.83 89.51 443.19 89.51 432.85 78.85" />
        </g>
    </g>
</svg>