<?xml version="1.0" encoding="utf-8"?>
<svg xmlns="http://www.w3.org/2000/svg" viewBox="0 0 792 356.49">
    <g id="dPArrowsFID6">
        <g id="pin2C450_2C452C_DP">
            <polygon id="pinBack2C450_2C452C_DP" class="stGray" points="489.45 256.82 512.04 233.43 498.45 233.43 498.45 196.82 480.45 196.82 480.45 233.43 466.77 233.43 489.45 256.82" />
            <polygon id="pinColor2C450_2C452C_DP" class="stWhite" points="489.45 252.52 504.99 236.43 495.45 236.43 495.45 199.82 483.44 199.82 483.44 236.43 473.85 236.43 489.45 252.52" />
        </g>
        <g id="pin2C451A_2C450_DP">
            <polygon id="pinBack2C451A_2C450_DP" class="stGray" points="520.74 192.9 544.13 215.49 544.13 201.9 580.74 201.9 580.74 183.9 544.13 183.9 544.13 170.22 520.74 192.9" />
            <polygon id="pinColor2C451A_2C450_DP" class="stWhite" points="525.05 192.9 541.14 208.44 541.14 198.91 577.75 198.91 577.75 186.89 541.14 186.89 541.14 177.3 525.05 192.9" />
        </g>
        <g id="pin2C451B_2C451A_DP">
            <polygon id="pinBack2C451B_2C451A_DP" class="stGray" points="594.53 156.91 617.12 133.52 603.53 133.52 603.53 96.91 585.53 96.91 585.53 133.52 571.86 133.52 594.53 156.91" />
            <polygon id="pinColor2C451B_2C451A_DP" class="stWhite" points="594.53 152.6 610.07 136.51 600.53 136.51 600.53 99.91 588.52 99.91 588.52 136.51 578.93 136.51 594.53 152.6" />
        </g>
        <g id="pin2C452A_2C450_DP">
            <polygon id="pinBack2C452A_2C450_DP" class="stGray" points="467.38 192.81 443.99 170.22 443.99 183.82 407.38 183.82 407.38 201.82 443.99 201.82 443.99 215.49 467.38 192.81" />
            <polygon id="pinColor2C452A_2C450_DP" class="stWhite" points="463.08 192.82 446.99 177.28 446.99 186.81 410.38 186.81 410.38 198.83 446.99 198.83 446.99 208.42 463.08 192.82" />
        </g>
        <g id="pin2C452B_2C452A_DP">
            <polygon id="pinBack2C452B_2C452A_DP" class="stGray" points="410.33 75.91 387.74 99.3 401.34 99.3 401.34 135.91 419.34 135.91 419.34 99.3 433.01 99.3 410.33 75.91" />
            <polygon id="pinColor2C452B_2C452A_DP" class="stWhite" points="410.34 80.22 394.8 96.31 404.33 96.31 404.33 132.92 416.34 132.92 416.34 96.31 425.94 96.31 410.34 80.22" />
        </g>
    </g>
</svg>
