<svg xmlns="http://www.w3.org/2000/svg" height="24px" width="22px" viewBox="0 0 48 44.93">
  <defs>
    <style>
      .cls-1 {
        fill: #989898;
      }
    </style>
  </defs>
  <g id="Layer_2" data-name="Layer 2">
    <g id="Layer_1-2" data-name="Layer 1">
      <g>
        <path d="M24.05,0H40.56C45.15,0,48,2.69,48,7V38.14a6.52,6.52,0,0,1-4.63,6.38,10.3,10.3,0,0,1-2.93.39q-16.56,0-33.13,0C2.88,44.92,0,42.19,0,38V7c0-4.3,2.84-7,7.43-7ZM43,22.71C43,17.48,43,12.25,43,7c0-1.71-.56-2.27-2.37-2.27H7.37c-1.78,0-2.44.63-2.44,2.27V38.18c0,1.66.65,2.26,2.43,2.26q16.61,0,33.23,0c1.81,0,2.38-.54,2.38-2.26C43,33,43,27.87,43,22.71Z"/>
        <path class="cls-1" d="M43,22.71c0,5.16,0,10.31,0,15.47,0,1.72-.57,2.26-2.38,2.26q-16.62,0-33.23,0c-1.78,0-2.43-.6-2.43-2.26V7c0-1.64.66-2.27,2.44-2.27H40.6C42.41,4.75,43,5.31,43,7,43,12.25,43,17.48,43,22.71Z"/>
      </g>
      <g>
        <path d="M22.81,20.49a12.57,12.57,0,0,0-6.68,2.44,19.69,19.69,0,0,0-1.57,1.3,1.78,1.78,0,0,1-2.63.11,1.72,1.72,0,0,1,.26-2.53,16.32,16.32,0,0,1,12.43-4.76,3.71,3.71,0,0,0,3.51-1.46c.34-.45.78-.83,1.34-1.42-1.22-.21-2.2-.46-3.2-.55A20.44,20.44,0,0,0,10,19.08c-.18.16-.34.33-.52.48a1.66,1.66,0,0,1-2.39,0,1.6,1.6,0,0,1,.08-2.38,37.08,37.08,0,0,1,5.2-3.92,23.35,23.35,0,0,1,19-2,1.28,1.28,0,0,0,1.52-.38C33.92,9.74,35,8.68,36.11,7.6S38.19,6.41,39,7.2,39.53,9,38.53,10L17.7,30.8c-1.4,1.4-2.79,2.81-4.2,4.19a1.73,1.73,0,0,1-2.61.21c-.74-.74-.68-1.7.22-2.61q5.49-5.51,11-11a7.78,7.78,0,0,1,1-.7Z"/>
        <path d="M27.5,34.18a3.4,3.4,0,1,1-3.4-3.44A3.37,3.37,0,0,1,27.5,34.18Z"/>
        <path d="M23,27c1-.89,1.9-1.81,2.89-2.67a1.13,1.13,0,0,1,.86-.09,9.59,9.59,0,0,1,4.61,2.68,1.64,1.64,0,0,1,.1,2.23,1.55,1.55,0,0,1-2.19.35,7.65,7.65,0,0,0-6.13-2.19Z"/>
        <path d="M28.86,21.09c.84-.76,1.58-1.46,2.36-2.1a.86.86,0,0,1,.79-.06c1.41,1,2.84,2,4.16,3.07a1.56,1.56,0,0,1,.09,2.35,1.7,1.7,0,0,1-2.39.08c-.73-.59-1.43-1.25-2.21-1.78S30,21.72,28.86,21.09Z"/>
        <path d="M34.07,15.78c.7-.59,1.43-1.24,2.2-1.84a.74.74,0,0,1,.7-.06c1.44,1.12,2.9,2.24,4.24,3.47a1.54,1.54,0,0,1-.15,2.21,1.62,1.62,0,0,1-2.23.09C37.33,18.45,35.84,17.22,34.07,15.78Z"/>
      </g>
    </g>
  </g>
</svg>
