<svg xmlns="http://www.w3.org/2000/svg" height="20px" width="20px" viewBox="0 0 40 39.94">
  <defs>
    <style>
      .cls-1 {
        fill: #989898;
      }
    </style>
  </defs>
  <g id="Layer_2" data-name="Layer 2">
    <g id="Icons">
      <g>
        <g>
          <path d="M20,0H33.8C37.62,0,40,2.39,40,6.19V33.9a5.8,5.8,0,0,1-3.86,5.68,8,8,0,0,1-2.44.34q-13.8,0-27.61,0A5.74,5.74,0,0,1,0,33.81V6.19C0,2.37,2.36,0,6.19,0ZM35.81,20.19V6.24c0-1.52-.47-2-2-2H6.14c-1.48,0-2,.56-2,2V33.93c0,1.48.54,2,2,2H33.82c1.52,0,2-.49,2-2Z"/>
          <path class="cls-1" d="M35.81,20.19V33.94c0,1.52-.47,2-2,2H6.13c-1.48,0-2-.54-2-2V6.24c0-1.46.55-2,2-2H33.83c1.51,0,2,.5,2,2Z"/>
        </g>
        <path d="M13.13,12c.36.36.67.69,1,1l4,3.62c.12.11.21.26.33.38a1.77,1.77,0,0,0,1.5.58,10.79,10.79,0,0,1,5.51,1.21,11.65,11.65,0,0,1,3.82,3,1.42,1.42,0,0,1,.37,1.39A1,1,0,0,1,28,23.7c-.7-.61-1.37-1.23-2.06-1.85l0,0a11.06,11.06,0,0,0-3.36-1.43c-.06,0-.12,0-.3.08.27.25.46.45.67.64l4.18,3.8c1.11,1,2.2,2,3.29,3.05l4.08,3.83a1.57,1.57,0,0,1,.3,1.82,1,1,0,0,1-1.19.42,2.45,2.45,0,0,1-.74-.51c-.59-.54-1.17-1.1-1.76-1.65-1-.95-2-1.89-3-2.83-.86-.8-1.74-1.58-2.61-2.38L21.3,22.81,20,21.65c-1.33-1.21-2.67-2.41-4-3.63q-1.68-1.53-3.33-3.09C11.12,13.45,9.55,12,8,10.48c-.64-.6-1.31-1.17-2-1.75a1.52,1.52,0,0,1-.47-2.1,1,1,0,0,1,1.57-.21C8.06,7.32,9,8.2,10,9.1a8.93,8.93,0,0,0,.84.79.67.67,0,0,0,.61.08A24.25,24.25,0,0,1,15.2,8.58,17.44,17.44,0,0,1,21.41,8a14.49,14.49,0,0,1,2.8.35c1.33.36,2.61.88,3.91,1.34.22.08.43.18.64.28a18.44,18.44,0,0,1,4,2.59,21.34,21.34,0,0,1,1.79,1.77,1.43,1.43,0,0,1,.28,1.55.94.94,0,0,1-1.57.41c-.53-.47-1-1-1.55-1.45a10.49,10.49,0,0,0-1.46-1.22c-1-.59-2-1.1-3-1.62a17.28,17.28,0,0,0-4.44-1.3,13.63,13.63,0,0,0-4.76-.14,30.32,30.32,0,0,0-4,1A4.81,4.81,0,0,0,13.13,12Z"/>
        <path d="M20.1,26.33a2.65,2.65,0,0,1,2.57,2.9c0,2.08-.81,2.89-2.51,3.12a2.07,2.07,0,0,1-2-1,3.6,3.6,0,0,1,.14-4.23A2.11,2.11,0,0,1,20.1,26.33Z"/>
        <path d="M15.6,21.1c-.51.33-1,.62-1.46,1S13,23,12.47,23.52s-1.2.6-1.63.14a1.49,1.49,0,0,1,.1-1.94,13.33,13.33,0,0,1,1-1c.43-.37.9-.69,1.34-1.06a.64.64,0,0,1,1,.06c.35.36.74.68,1.1,1A1.2,1.2,0,0,1,15.6,21.1Z"/>
        <path d="M6.82,12.87C7.5,13.49,8,14,8.49,14.44a.48.48,0,0,1,0,.45c-.39.43-.8.83-1.22,1.22-.58.55-1.19.58-1.63.1a1.51,1.51,0,0,1,.08-1.9C6.08,13.86,6.43,13.37,6.82,12.87Z"/>
      </g>
    </g>
  </g>
</svg>
