<svg xmlns="http://www.w3.org/2000/svg" height="20px" width="20px" viewBox="0 0 40 39.94">
  <defs>
    <style>
      .cls-1 {
        fill: #231f20;
      }

      .cls-2 {
        fill: #ed1c24;
      }
    </style>
  </defs>
  <g id="Layer_2" data-name="Layer 2">
    <g id="Icons">
      <g>
        <path class="cls-1" d="M.09,18.24a20.83,20.83,0,0,1,1.85-6.79A19.61,19.61,0,0,1,17.33.2,20,20,0,0,1,29.42,37.61a19.59,19.59,0,0,1-12.24,2.13A20,20,0,0,1,.31,23.39c-.09-.55-.14-1.1-.21-1.65A16.38,16.38,0,0,1,.09,18.24Z"/>
        <path class="cls-2" d="M3.79,21.76a16.13,16.13,0,0,1,4.39-13,15.67,15.67,0,0,1,10.32-5A15.83,15.83,0,0,1,31.29,8.22a15.61,15.61,0,0,1,4.07,6.37A16.22,16.22,0,0,1,22.71,36.05,16,16,0,0,1,8.58,31.6a15.29,15.29,0,0,1-4.43-7.86c-.07-.3-.15-.59-.22-.89S4,22.11,3.79,21.76Z"/>
        <path class="cls-1" d="M25.2,26.83a2.12,2.12,0,0,1-1.67-.74c-1-1-2.07-2-3.06-3.07-.37-.39-.58-.36-.93,0-1,1.08-2.1,2.13-3.18,3.18a1.72,1.72,0,0,1-1.89.53,1.85,1.85,0,0,1-1.27-1.52,2.24,2.24,0,0,1,.85-1.9c.93-1,1.84-1.93,2.8-2.85.43-.4.36-.63,0-1-1.06-1-2.12-2.05-3.13-3.13a1.8,1.8,0,0,1,.91-3.14,1.84,1.84,0,0,1,1.73.6c1,1,2.07,2,3.08,3,.39.39.68.46,1.09,0,.83-.9,1.69-1.76,2.55-2.63a5.59,5.59,0,0,1,.67-.62,1.86,1.86,0,0,1,2.56.15,1.73,1.73,0,0,1,0,2.54c-1,1.05-2,2.05-3,3-.53.49-.57.79,0,1.31a39.64,39.64,0,0,1,3.13,3.22,1.75,1.75,0,0,1-.79,2.85A4,4,0,0,1,25.2,26.83Z"/>
      </g>
    </g>
  </g>
</svg>
