<svg xmlns="http://www.w3.org/2000/svg" height="20px" width="22px" viewBox="0 0 45.78 40">
  <defs>
    <style>
      .cls-1 {
        fill: #231f20;
      }

      .cls-2 {
        fill: #fff200;
      }
    </style>
  </defs>
  <g id="Layer_2" data-name="Layer 2">
    <g id="Icons">
      <g>
        <path class="cls-1" d="M45.59,35.64l.19,0V37l-.19,0A1,1,0,0,1,45.59,35.64Z"/>
        <path class="cls-1" d="M45.78,35.64V37c-1,2.38-1.89,3-4.49,3H3.92A3.75,3.75,0,0,1,.59,34.22q9.35-16,18.74-32A3.89,3.89,0,0,1,23.71.08a3.69,3.69,0,0,1,2.62,2Q31,10,35.58,17.88t9.35,16C45.26,34.41,45.5,35,45.78,35.64Z"/>
        <path class="cls-2" d="M22.88,35.84H5.77c-1.14,0-1.16,0-.6-1Q10.93,24.94,16.73,15c1.85-3.17,3.72-6.34,5.54-9.53.44-.78.66-.75,1.09,0q5.82,10,11.68,19.91l5.61,9.53c.53.92.52.93-.57.93Z"/>
        <path class="cls-1" d="M25,17.91c0,1.37,0,2.74,0,4.1a2,2,0,0,1-2,2.18,1.9,1.9,0,0,1-2.11-2.05q-.11-4.34,0-8.67a2,2,0,0,1,2.08-2,2,2,0,0,1,2,2.19C25,15.05,25,16.48,25,17.91Z"/>
        <path class="cls-1" d="M25.64,30.08a2.74,2.74,0,1,1-5.47,0,2.74,2.74,0,1,1,5.47,0Z"/>
      </g>
    </g>
  </g>
</svg>
