<svg xmlns="http://www.w3.org/2000/svg" height="20px" width="20px" viewBox="0 0 40 39.95">
  <defs>
    <style>
      .cls-1 {
        fill: #231f20;
      }

      .cls-2 {
        fill: #00a651;
      }
    </style>
  </defs>
  <g id="Layer_2" data-name="Layer 2">
    <g id="Icons">
      <g>
        <path class="cls-1" d="M.09,4.81A5.7,5.7,0,0,1,4,.29,6.53,6.53,0,0,1,6.15,0H33.91A5.76,5.76,0,0,1,40,6.1V33.86A5.73,5.73,0,0,1,33.92,40H6.44C2.91,40,1,38.53.1,35.15A1.72,1.72,0,0,1,0,34.31V5.66A1.87,1.87,0,0,1,.09,4.81Z"/>
        <path class="cls-2" d="M35.77,20V33.79c0,1.54-.45,2-2,2H6.24c-1.56,0-2-.49-2-2.06V6.27c0-1.61.5-2.1,2.11-2.1H33.77c1.57,0,2,.45,2,2.06Z"/>
        <path class="cls-1" d="M17.42,27.81A2.83,2.83,0,0,1,15.31,27c-1.77-1.74-3.53-3.49-5.26-5.26a2.12,2.12,0,1,1,3-3c1.14,1.1,2.3,2.19,3.4,3.34.53.55.86.51,1.39,0,2.87-2.92,5.79-5.8,8.68-8.7a3.88,3.88,0,0,1,1.37-1,2,2,0,0,1,2.38.68,2,2,0,0,1-.13,2.63c-.52.6-1.11,1.14-1.67,1.7L18.81,27C18.35,27.45,17.87,27.85,17.42,27.81Z"/>
      </g>
    </g>
  </g>
</svg>
