<?xml version="1.0" encoding="utf-8"?>
<!-- Generator: Adobe Illustrator 25.3.1, SVG Export Plug-In . SVG Version: 6.00 Build 0)  -->
<svg version="1.1" xmlns="http://www.w3.org/2000/svg" xmlns:xlink="http://www.w3.org/1999/xlink" x="0px" y="0px"
	 viewBox="0 0 1080 532" style="enable-background:new 0 0 1080 532;" xml:space="preserve">
<style type="text/css">
	.st0{fill-rule:evenodd;clip-rule:evenodd;fill:#0A991F;stroke:#000000;stroke-width:1.6667;stroke-miterlimit:8;}
	.st1{fill-rule:evenodd;clip-rule:evenodd;fill:#999999;stroke:#000000;stroke-width:1.6667;stroke-miterlimit:8;}
	.st2{fill-rule:evenodd;clip-rule:evenodd;fill:#FBFF05;stroke:#000000;stroke-width:1.6667;stroke-miterlimit:8;}
	.st3{fill-rule:evenodd;clip-rule:evenodd;fill:#FB0E0E;stroke:#000000;stroke-width:1.6667;stroke-miterlimit:8;}
	.st4{fill-rule:evenodd;clip-rule:evenodd;fill:#FFFFFF;stroke:#000000;stroke-width:1.6667;stroke-miterlimit:8;}
	.st5{font-family:'Calibri';}
	.st6{font-size:28px;}
	.st7{fill:#86BBD8;stroke:#000000;stroke-width:1.6667;stroke-miterlimit:8;}
	.st8{fill:#FFCF56;stroke:#000000;stroke-width:1.6667;stroke-miterlimit:8;}
	.st9{fill:#EDEAD0;stroke:#000000;stroke-width:1.6667;stroke-miterlimit:8;}
	.st10{fill:#D0DEEF;stroke:#000000;stroke-width:1.6667;stroke-miterlimit:8;}
	.st11{fill:#0A4962;stroke:#000000;stroke-width:1.6667;stroke-miterlimit:8;}
	.st12{fill:#BABABA;stroke:#000000;stroke-width:1.6667;stroke-miterlimit:8;}
	.st13{fill:#FFFFFF;}
	.st14{fill:none;stroke:#000000;stroke-width:3;stroke-miterlimit:8;}
</style>
<g id="Layer_1">
	<g>
		<g>
			<path class="st0" d="M42.3,72.8c0-17.9,15.7-32.5,35-32.5s35,14.6,35,32.5s-15.7,32.5-35,32.5S42.3,90.8,42.3,72.8z"/>
			<path class="st1" d="M41.3,152.8c0-17.9,15.7-32.5,35-32.5s35,14.6,35,32.5s-15.7,32.5-35,32.5S41.3,170.8,41.3,152.8z"/>
			<path class="st2" d="M41.3,232.3c0-17.7,15.7-32,35-32s35,14.3,35,32s-15.7,32-35,32S41.3,250,41.3,232.3z"/>
			<path class="st3" d="M41.3,312.8c0-17.9,15.7-32.5,35-32.5s35,14.6,35,32.5s-15.7,32.5-35,32.5S41.3,330.8,41.3,312.8z"/>
			<path class="st4" d="M41.3,393.8c0-17.9,15.7-32.5,35-32.5s35,14.6,35,32.5s-15.7,32.5-35,32.5S41.3,411.8,41.3,393.8z"/>
			<text transform="matrix(1 0 0 1 134.0561 80.3439)" class="st5 st6">(Green) Within Spec</text>
			<text transform="matrix(1 0 0 1 134.0561 162.3439)" class="st5 st6">(Gray) Comm Loss</text>
			<text transform="matrix(1 0 0 1 134.0561 241.3439)" class="st5 st6">(Yellow) Warning</text>
			<text transform="matrix(1 0 0 1 133.0239 320.3439)" class="st5 st6">(Red) Alarm (Out of Spec)</text>
			<text transform="matrix(1 0 0 1 133.0239 401.3439)" class="st5 st6">(White) No Data</text>
			<text transform="matrix(1 0 0 1 567.8401 79.3439)" class="st5 st6">(Dark Blue) ISO-7</text>
			<text transform="matrix(1 0 0 1 567.8401 162.3439)" class="st5 st6">(Dark Yellow) ISO-8</text>
			<text transform="matrix(1 0 0 1 567.8401 242.3439)" class="st5 st6">(Beige) Controlled Non-Classified (CNC)</text>
			<text transform="matrix(1 0 0 1 566.808 323.3439)" class="st5 st6">(Light Blue) Non-Classified (NC)</text>
			<text transform="matrix(1 0 0 1 567.6282 401.344)" class="st5 st6">(Dark Blue) Primary Engineering Control</text>
			<text transform="matrix(1 0 0 1 567.6282 479.344)" class="st5 st6">(Gray) Pass-Through Chamber (X = Active)</text>
			<rect x="475.3" y="40.3" class="st7" width="70" height="63"/>
			<rect x="475.3" y="123.3" class="st8" width="70" height="63"/>
			<rect x="476.3" y="204.3" class="st9" width="70" height="63"/>
			<rect x="475.3" y="283.3" class="st10" width="70" height="63"/>
			<rect x="475.3" y="362" class="st11" width="70" height="63"/>
			<rect x="475.3" y="443.4" class="st12" width="70" height="63"/>
		</g>
	</g>
</g>
<g id="keyArrow">
	<g id="arrow">
		<text transform="matrix(1 0 0 1 133.8438 477.6974)" class="st5 st6">Design Airflow Direction</text>
		<g id="arrowBackground_2_">
			<polygon class="st13" points="122.3,471.4 91.1,441.3 91.1,459.4 42.3,459.4 42.3,483.4 91.1,483.4 91.1,501.7 			"/>
			<polygon class="st14" points="122.3,471.4 91.1,441.3 91.1,459.4 42.3,459.4 42.3,483.4 91.1,483.4 91.1,501.7 			"/>
		</g>
		<polygon id="arrowColor_2_" class="st13" points="116.6,471.4 95.1,450.7 95.1,463.4 46.3,463.4 46.3,479.4 95.1,479.4 
			95.1,492.2 		"/>
	</g>
</g>
</svg>
