<svg xmlns="http://www.w3.org/2000/svg" viewBox="0 0 7613 7328.29">
  <style>
    .st1{fill:#e1e1e1}.st2{fill:#fbb03b}.st3{fill-opacity:.25;stroke:#000;stroke-linecap:round;stroke-linejoin:round}.st4{fill:#94762d}.st5{fill:#0ff}.st6{fill:#fb09bf}.st7{fill:#b5fd19}.st9{fill:none}.st10{fill:#676767}.st11{font-family:&apos;Calibri&apos;}.st12{font-size:320.8324px}.st14{font-size:213.8883px}
  </style>
  <g id="Background">
    <path id="Background_Area" fill="#fff" d="M0 0h7613v7328.29H0z"/>
  </g>
  <g id="CampusBuidings">
    <!-- <path id="MLP09" class="st1" d="M1346.51 6531.84l67.66 1.71 1.9-120.96-65-1.95 28.74-1685.37-1269.8-26.32-2.23 127.92 63.38.84-28.06 1575.02-62.59.41-2.68 122.57 268.18 4.63-1.03 73.08 420.23 133.36 576.77 6.98 4.46-211.05z"/>
    <path id="Building49" class="st1" d="M1699.89 8583.35l243.43-1.8-6.31-856.17-245.74 1.81 1.1 147.93-19.22-.17 1.03-118.57-3.02-.03.16-17.35-523.35-4.49-902.81-7.74-.1 10.9-143.91-1.24-.08 8.93-3.95 135.69-29.83-.25-3.02 352.91-62.67-.54-.72 83.37L0 8420.45l19.43.16-1.19 138.6 49.3.41-.93 107.37 104.9.91-.71 82.71 639.36 5.49.78 16.86 4.68 16.18 8.33 14.65 11.51 12.33 14.06 9.31 15.87 5.77 16.75 1.92 16.75-2.02 15.83-5.85 14.03-9.37 11.45-12.39 8.25-14.71 4.59-16.22.68-16.91 637.62-1.6-.23-93.45 108.96-.25z"/>
     -->
    <!-- <path id="Building30" class="st1" d="M2891.43 9309.02l-9.37.03-.25-164.82 28.23-.41-4.98-283.01-212.71 3.09-.65-36.6-143.42 2.08-.47-311.05-335.22.49.8 534.54-25.35.05.15 95.71-53.35.07.38 251.96 53.29-.09.15 96.2 26.86-.06.8 531.66.5.01 332.77-.52-.78-519.67 72.42-.1.14 104.93 270.53-.42z"/>
    <path id="Building29-B" class="st1" d="M2147.02 10514.43l-1164.43 2.66.1 40-195.27.45-.12-43.04 23.28-.05-.51-215.17-91.1.2-.02-11.43-348 .8.03 12.92-91.91.22.48 213.95 25.42-.07 2.29 997.71 64.22-.14.15 64.89 354.24-.82-.14-65.18 63.27-.15-.33-148.06 196.03-.46.21 88.52 295.26-.68.11 41.82-15.81.03.13 50.99-12.27 58.56.12 53.58.13 53.81 12.5 52.11.1 50.29 17.1-.03.04 15.63 213.29-.49-.72-309.23 20.44-4.91 20.78-4.98 10.73-13.61 14.46-18.38-.05-26.1 586.31-1.34-.57-219.62 503.78-1.28 17.14-.03.02 22.53-34.8.03.18 142.36 96.98-.12-.04-24.68 531.66-.69.1 67.89 186.18-.25.26 198.65 196.2-.25-.35-266.95 593.66-.78-.23-130.39 57.98-.11-.25-147.01-57.68.1-.09-57.1-1510.9 2.57.1 59.37-59.2.1.13 83-4.12.09-515.16 1.26z"/>
     -->
    <g id="Building10">
      <path class="st1" d="M7482.08 2045.55l130.92-.57-1.2-271.97-129.36.57-.65-149.18-79.81.34-.1-25.6-1261.83 5.51-.83-193.34 36.56-.15-.82-185.53-35.95.16-.77-172.91 187.32-.81-.1-23.1 34.75-.16-2.11-484.08-68.71.3-.58-133.24-678.51 2.97-1160.61 5.07-1.09-128.38.48-.03 112.95-17.12 111.18-26.28 108.66-35.27L4784.3 0l-107.33 39.05-110.31 29.63-112.45 19.95-113.76 10.16-130.42-1.78-129.33-16.85-126.53-31.66-122.01-46.08-3.23 212.52 122.79 39.73 126.12 27.45 33.68 3.92 1.15 135.27-1754.04 7.67.57 128.2-97 .43.29 68.49 36.39-.16.91 210.05-45.52.2.21 48.26-80.52.37.99 212.94 49.77-.24 255.67 3.14.63 135.19-32.87.15.87 185.4 32.82-.15.91 197.2-250.67 1.17-.12-26.1-45 .2-967.62 4.51.21 44.54-81.5.38.67 143.49-140.71.67.33 70.66 34.77-.16.98 211.1 106.94-.5.91 194.79 81.67-.37.22 45.89 1175.11-5.46.09 100.22.25 281.32-18.41.09-.27-55.13-205.21 1 1.03 210.34 205.21-1-.27-55.12 18.01-.09.21 233.73-1395.4 1.26.85 942.54-57.11.04.18 204.84 59.24-.06.25 272.51 620.86-.55-.03-43.81 178.6-.16-.01-5.12 70.3-.06.14 140.75 836.21-.76.06 64.91-3.64 74.02-345.77 200.08-31.07-23.28-33.61-19.44-35.67-15.36-37.24-11.03-38.29-6.57-38.81-2.02-38.77 2.57-38.2 7.12-37.14 11.57-35.49 15.84-33.4 19.93-30.82 23.71-27.83 27.15-24.42 30.26-20.69 32.89-16.67 35.12-12.41 36.81-7.98 38.02-3.46 38.69 1.13 38.81-80.67 47.75 31.85 53.82-25.74 15.24 78.7 132.96 29.27-17.33 29.62 50.02 72.67-43.02 33.19 21.19 35.52 17.08 37.28 12.69 38.55 8.18 39.26 3.49 39.4-1.23 38.97-5.89 37.99-10.54 36.48-14.97 34.43-19.22 31.88-23.19 28.88-26.86 25.47-30.08 21.7-32.91 17.62-35.27 13.28-37.1 8.73-38.44 1.6-15.35 2.48-23.84-.64-39.37-5.32-39.03 232-133.95.07 138.2-23.84.02v-3.61l-130.19.06.09 155.58 129.64-.07-.02-51.4H2708.56l.09 174.87-247.31.13.21 382.84-638.49.36.3 527.87 54.73-.04.02 54.58 69.84-.04.12 211.69-103.42.05.28 480.26 177.19-.1.05 107.88 459.94-.26-.1-170.6 163.99-.08 40.92 7.68 197.22-.1.14 264.71 368.13-.21-.14-267.17 68.06-.03-.2-372.88 237.59-.14-.21-385.82 183.21-.11-.15-249.44 193.46-.11.09 149.48 134.35-.09.08 149.19 42.82-.02.03 26.62-40.59.02.25 455.41 501.84-.29-.35-631.62 103.61-.06-.14-264.29 559.96-.32.04 74.06 389.67-.22-.1-163.66 100-.05.09 165.04-64.93.04.24 434.99 120.01-.06-.02-42.73 132.93-.07-.18-314.58 3.62-80.61-122.64.07-.08-159h1.27l136.1-.08-.42-769.93-.78-477.46 789.5-1.28.93 575.13 116.16-.2.1 54.42 115.07-.19-.06-39.5-.1-62.68 285.35-.47-.98-594.72-1.21-738.8-27.3.06-.56-349.13-192.7-.37v-376.02l179.16-1.62-1.41-323.45-177.75.78V2294.1l383.68-1.68-.2-44.23 84.45-.36-.85-202.28zm-4911.42-428.86l-.56-189.54 32.86-.11-.58-195.34-41.77.11-.51-170.8 1456.48-4.35.25 82.35-161.16.47 1.12 374.09 217.24-.66.29 99.29-1503.66 4.49zm3492.24-6.3l-494.53-.51-962.15-.98.56-555.93 981.08 1 472.05.47-.19 173.91-33.31-.02-.2 186 36.88.04-.19 196.02z"/>
      <path transform="rotate(45 5307.42686316 6708.21930672)" class="st1" d="M5248.72 6646.24h117.2v124.02h-117.2z"/>
    </g>
  </g>
  <g id="Facilitiy_Footprints">
    <path id="Facility_3E" class="st2" d="M1676.11 4296.57h-22.36v-.97h-532.78v129.3h532.78v-38.89h22.36z"/>
    <path id="Facility_I-IVAU" class="st2" d="M4950.46 4036.84l.37-130.35 52.58-45.86-16.4-.04.52-182.68 338.44.96-1.02 359.04z"/>
    <path id="Facility_NMD" transform="matrix(1 .00284 -.00284 1 7.4498 -9.2599)" class="st2" d="M3080.35 2521.32h362.74v190.4h-362.74z"/>
    <path id="Facility_PET_Radiopharm" transform="matrix(1 .00284 -.00284 1 6.8518 -8.551)" class="st2" d="M2926.21 2362.59h171.6v87.7h-171.6z"/>
    <path id="Facility_PET_B3" transform="matrix(1 .00284 -.00284 1 6.4949 -8.7447)" class="st2" d="M3013.12 2145.22h133.74v271.14h-133.74z"/>
    <path id="Facility_2J" class="st2" d="M2549.52 4390.35h-112.55l.12-43.57c-62.99-.24-191.3-.49-253.79-.39v44.33h-187.54c.07 22.47-.22 109-.28 133.01l553.79 1.57.25-134.95z"/>
    <a>
      <path id="Facility_East_Terrace" transform="matrix(.00284 -1 1 .00284 3996.9556 9549.7793)" class="st2" d="M6679.57 2541.82h214.77v457.81h-214.77z"/>
    </a>
    <a>
      <path id="Facility_DLM" transform="matrix(.00284 -1 1 .00284 75.2741 7960.1108)" class="st2" d="M3986.96 3845.81h84.12v193h-84.12z"/>
    </a>
<!--     
    <path id="Facility_T_30" transform="matrix(.00284 -1 1 .00284 -5432.0088 10602.5391)" class="st2" d="M2428.25 7697.15h344.21v655.71h-344.21z"/>
    <path id="Facility_29" transform="matrix(.00284 -1 1 .00284 -10139.4639 11794.8525)" class="st2" d="M734.43 10924.89h220.12v113.41H734.43z"/> -->
    
    <a>
      <path id="Facility_P-IVAU" transform="matrix(.00284 -1 1 .00284 3704.6169 7771.771)" class="st2" d="M5578.56 1700.85h341.4v654.9h-341.4z"/>
    </a>
    <path id="Facility_1B42" transform="matrix(.00284 -1 1 .00284 243.5148 10496.9736)" class="st2" d="M5268.5 5067.98h233.36v116.8H5268.5z"/>
    <path id="Facility_HPC13" transform="matrix(.00284 -1 1 .00284 -344.698 11923.8535)" class="st2" d="M5718.39 6092.46h176.31v84.61h-176.31z"/>
    <path id="Facility_10B" transform="matrix(.00284 -1 1 .00284 -563.16 4227.5049)" class="st2" d="M1784.3 2220.96h107.78v350.35H1784.3z"/>
    <path id="Facility_10A" transform="matrix(.00284 -1 1 .00284 -743.3014 4406.1167)" class="st2" d="M1783.79 2400.59h107.78v350.35h-107.78z"/>
    <path id="Facility_2E" class="st2" d="M4576.24 4263.6h867.67v210h-867.67z"/>
  </g>
  <g id="Pins_Ownership">
    <g id="Pin_Facility_2J">
      <path class="st3" d="M2551.84 3649.85c-95 95-114.25 236.99-57.93 351.13l-221.41 359.26L2633 4139.9c114.09 56.13 255.89 36.82 350.8-58.09 119.28-119.28 119.28-312.68 0-431.96-119.28-119.28-312.68-119.28-431.96 0zm353.51 353.52c-75.96 75.96-199.11 75.96-275.06 0s-75.96-199.11 0-275.06 199.11-75.96 275.06 0 75.96 199.1 0 275.06z"/>
      <circle id="CC_Pharmacy_2J" cx="2767.82" cy="3865.84" r="194.5"/>
    </g>
    <g id="Pin_Facility_3E">
      <path class="st3" d="M1677.88 3589.51c-95 95-114.25 236.99-57.93 351.13l-221.41 359.26 360.5-220.34c114.09 56.13 255.89 36.82 350.8-58.09 119.28-119.28 119.28-312.68 0-431.96-119.28-119.28-312.68-119.28-431.96 0zm353.51 353.52c-75.96 75.96-199.11 75.96-275.06 0-75.96-75.96-75.96-199.11 0-275.06 75.96-75.96 199.11-75.96 275.06 0s75.96 199.1 0 275.06z"/>
      <circle id="CC_Pharmacy_3E"  cx="1893.86" cy="3805.5" r="194.5"/>
    </g>
    <g id="Pin_Facility_10A">
      <path class="st3" d="M1568.89 3340.55c95-95 114.25-236.99 57.93-351.13l221.41-359.26-360.5 220.34c-114.09-56.13-255.89-36.82-350.8 58.09-119.28 119.28-119.28 312.68 0 431.96 119.28 119.28 312.68 119.28 431.96 0zm-353.51-353.52c75.96-75.96 199.11-75.96 275.06 0 75.96 75.96 75.96 199.11 0 275.06-75.96 75.96-199.11 75.96-275.06 0-75.96-75.95-75.96-199.1 0-275.06z"/>
      <circle id="CC_Other_10A"  cx="1352.91" cy="3124.57" r="194.5"/>
    </g>
    <g id="Pin_Facility_10B">
      <path class="st3" d="M1132.54 2073.69c95 95 236.99 114.25 351.13 57.93l359.26 221.41-220.34-360.5c56.13-114.09 36.82-255.89-58.09-350.8-119.28-119.28-312.68-119.28-431.96 0-119.28 119.28-119.28 312.68 0 431.96zm353.52-353.52c75.96 75.96 75.96 199.11 0 275.06-75.96 75.96-199.11 75.96-275.06 0-75.96-75.96-75.96-199.11 0-275.06 75.95-75.95 199.1-75.95 275.06 0z"/>
      <circle id="CC_Other_10B" cx="1348.52" cy="1857.71" r="194.5"/>
    </g>
    <g id="Pin_Facility_PET_B3">
      <path class="st3" d="M3349.62 1581.68c-95 95-114.25 236.99-57.93 351.13l-221.41 359.26 360.5-220.34c114.09 56.13 255.89 36.82 350.8-58.09 119.28-119.28 119.28-312.68 0-431.96-119.28-119.28-312.67-119.28-431.96 0zm353.52 353.52c-75.96 75.96-199.11 75.96-275.06 0-75.96-75.96-75.96-199.11 0-275.06 75.96-75.96 199.11-75.96 275.06 0 75.95 75.95 75.95 199.1 0 275.06z"/>
      <circle id="NCI_Facility_PET_B3" cx="3565.61" cy="1797.67" r="194.5"/>
    </g>
    <g id="Pin_Facility_NMD">
      <path class="st3" d="M3556.34 3388.81c0-134.35-86.79-248.37-207.33-289.25l-97.48-410.6-99.11 410.72c-120.36 40.98-206.98 154.9-206.98 289.13 0 168.69 136.75 305.45 305.45 305.45 168.7-.01 305.45-136.76 305.45-305.45zm-499.94 0c0-107.42 87.08-194.5 194.5-194.5s194.5 87.08 194.5 194.5-87.08 194.5-194.5 194.5-194.5-87.08-194.5-194.5z"/>
      <circle id="NCI_Facility_NMD" cx="3250.9" cy="3388.81" r="194.5"/>
    </g>
    <g id="Pin_Facility_P-IVAU">
      <path class="st3" d="M6028.59 1181.75c-95 95-114.25 236.99-57.93 351.13l-221.41 359.26 360.5-220.34c114.09 56.13 255.89 36.82 350.8-58.09 119.28-119.28 119.28-312.68 0-431.96-119.28-119.28-312.67-119.28-431.96 0zm353.52 353.52c-75.96 75.96-199.11 75.96-275.06 0-75.96-75.96-75.96-199.11 0-275.06 75.96-75.96 199.11-75.96 275.06 0s75.95 199.1 0 275.06z"/>
      <circle id="CCE_Facility_P-IVAU" cx="6244.57" cy="1397.74" r="194.5"/>
    </g>
    <g id="Pin_Facility_East_Terrace">
      <path class="st3" d="M5879.99 3036.92c134.35 0 248.37-86.78 289.25-207.33l410.6-97.48-410.72-99.11c-40.98-120.36-154.9-206.98-289.13-206.98-168.69 0-305.44 136.75-305.45 305.44 0 168.71 136.75 305.46 305.45 305.46zm0-499.95c107.42 0 194.5 87.08 194.5 194.5s-87.08 194.5-194.5 194.5-194.5-87.08-194.5-194.5 87.08-194.5 194.5-194.5z"/>
      <circle id="CC_Pharmacy_East_Terrace" cx="5879.99" cy="2731.47" r="194.5"/>
    </g>
    <g id="Pin_Facility_I-IVAU">
      <path class="st3" d="M6046.3 3552.46c-134.36 0-248.37 86.78-289.25 207.32l-410.6 97.48 410.72 99.11c40.98 120.36 154.9 206.98 289.13 206.98 168.69 0 305.45-136.75 305.45-305.45 0-168.68-136.76-305.44-305.45-305.44zm0 499.95c-107.42 0-194.5-87.08-194.5-194.5s87.08-194.5 194.5-194.5 194.5 87.08 194.5 194.5-87.08 194.5-194.5 194.5z"/>
      <circle id="CCE_Facility_I-VAU" cx="6046.3" cy="3857.91" r="194.5"/>
    </g>
    <g id="Pin_Facility_2E">
      <path class="st3" d="M6124.81 4647.94c-95-95-236.99-114.25-351.13-57.93l-359.26-221.41 220.34 360.5c-56.13 114.09-36.82 255.89 58.09 350.8 119.28 119.28 312.68 119.28 431.96 0 119.29-119.28 119.29-312.68 0-431.96zm-353.51 353.51c-75.96-75.96-75.96-199.11 0-275.06 75.96-75.96 199.11-75.96 275.06 0 75.96 75.96 75.96 199.11 0 275.06-75.95 75.96-199.1 75.96-275.06 0z"/>
      <circle id="CC_Pharmacy_2E" cx="5908.83" cy="4863.92" r="194.5"/>
    </g>
    <g id="Pin_Facility_HPC13">
      <path class="st3" d="M6568.1 6441.99c-95-95-236.99-114.25-351.13-57.93l-359.26-221.41 220.34 360.5c-56.13 114.09-36.82 255.89 58.09 350.8 119.28 119.28 312.68 119.28 431.96 0s119.28-312.67 0-431.96zm-353.52 353.52c-75.96-75.96-75.96-199.11 0-275.06 75.96-75.96 199.11-75.96 275.06 0s75.96 199.11 0 275.06-199.1 75.95-275.06 0z"/>
      <circle id="CC_Other_HP13" cx="6351.75" cy="6657.98" r="194.5" />
    </g>
    <!-- <g id="Ownership_Facility_Other">
      <path class="st3" d="M3639.09 8304.34c-95-95-236.99-114.25-351.13-57.93L2928.7 8025l220.34 360.5c-56.13 114.09-36.82 255.89 58.09 350.8 119.28 119.28 312.68 119.28 431.96 0 119.28-119.28 119.28-312.67 0-431.96zm-353.51 353.52c-75.96-75.96-75.96-199.11 0-275.07s199.11-75.96 275.06 0c75.96 75.96 75.96 199.11 0 275.06s-199.11 75.96-275.06.01z"/>
      <circle id="CC_Other_T_30" class="st5" cx="3423.11" cy="8520.32" r="194.5"/>
    </g> -->
    <!-- <g id="Ownership_Facility_NIAID">
      <path class="st3" d="M1180.85 10244.69c-95 95-114.25 236.99-57.93 351.13l-221.41 359.26 360.5-220.34c114.09 56.13 255.89 36.82 350.8-58.09 119.28-119.28 119.28-312.68 0-431.96-119.28-119.28-312.68-119.28-431.96 0zm353.51 353.51c-75.96 75.96-199.11 75.96-275.06 0-75.96-75.96-75.96-199.11 0-275.06 75.96-75.96 199.11-75.96 275.06 0 75.96 75.96 75.96 199.11 0 275.06z"/>
      <circle cx="1396.83" cy="10460.67" r="194.5" fill="#c9363c" stroke="#000" stroke-miterlimit="10"/>
    </g> -->
    <g id="Pin_Facility_1B42">
      <path class="st3" d="M5071.5 5836.78c95-95 114.25-236.99 57.93-351.13l221.41-359.26-360.5 220.34c-114.09-56.13-255.89-36.82-350.8 58.09-119.28 119.28-119.28 312.68 0 431.96 119.28 119.28 312.68 119.28 431.96 0zm-353.51-353.52c75.96-75.96 199.11-75.96 275.06 0 75.96 75.96 75.96 199.11 0 275.06-75.96 75.96-199.11 75.96-275.06 0s-75.96-199.1 0-275.06z"/>
      <circle id="CC_Other_HP13_1b42" cx="4855.52" cy="5620.79" r="194.5"/>
    </g>
    <g id="Pin_Facility_DLM_Image">
      <path class="st3" d="M3738.65 4701.06c95-95 114.25-236.99 57.93-351.13l221.41-359.26-360.5 220.34c-114.09-56.13-255.89-36.82-350.8 58.09-119.28 119.28-119.28 312.68 0 431.96 119.28 119.29 312.68 119.29 431.96 0zm-353.51-353.51c75.96-75.96 199.11-75.96 275.06 0 75.96 75.96 75.96 199.11 0 275.06-75.96 75.96-199.11 75.96-275.06 0-75.96-75.95-75.96-199.11 0-275.06z"/>
      <circle id="NCI_Facility_DLM_Image" cx="3522.67" cy="4485.08" r="194.5"/>
    </g>
    <g id="Pin_Facility_PET_Radiopharm">
      <path class="st3" d="M2262.85 2113.21c95 95 236.99 114.25 351.13 57.93l359.26 221.41-220.34-360.5c56.13-114.09 36.82-255.89-58.09-350.8-119.28-119.28-312.68-119.28-431.96 0-119.28 119.28-119.28 312.68 0 431.96zm353.52-353.51c75.96 75.96 75.96 199.11 0 275.06s-199.11 75.96-275.06 0c-75.96-75.96-75.96-199.11 0-275.06 75.95-75.96 199.1-75.96 275.06 0z"/>
      <circle id="NCI_Facility_PET_Radiopharm" cx="2478.84" cy="1897.23" r="194.5"/>
    </g>
  </g>
  <!-- <g id="Text_Facility">
    <path class="st9" d="M319.86 5600.45h803.1v257.5h-803.1z"/>
    <text transform="translate(352.6422 5817.9722)" class="st10 st11 st12">
      MLP9
    </text>
    <path class="st9" d="M1093.57 10909.15h606.51v259.06h-606.51z"/>
    <text transform="translate(1146.963 11126.6748)" class="st10 st11 st12">
      29B
    </text>
    <path class="st9" d="M3228.61 11092.03h573.17v255.07h-573.17z"/>
    <text transform="translate(3259.7632 11309.5498)" class="st10 st11 st12">
      29A
    </text>
    <path class="st9" d="M2223.7 9102.87h502.31v260.91H2223.7z"/>
    <text transform="translate(2312.2441 9320.3896)" class="st10 st11 st12">
      30
    </text>
    <path class="st9" d="M758.01 8145.91h501.61v292.25H758.01z"/>
    <text transform="translate(846.2072 8363.4307)" class="st10 st11 st12">
      49
    </text>
    <path class="st9" d="M3463.25 651.23h2001.86v236.96H3463.25z"/>
    <text transform="translate(4100.75 2500.7513)">
      <tspan x="0" y="0" class="st10 st11 st12">10</tspan><tspan x="1994.86" y="0" class="st11 st12" fill="#010101"></tspan>
    </text>
  </g> -->
  <!-- <g id="Facility_Key">
    <text transform="translate(5559.8887 9914.2305)">
      <tspan x="0" y="0" class="st10 st11 st14">CCE Facility</tspan><tspan x="0" y="434.91" class="st10 st11 st14">CC Pharmacy Facilility</tspan><tspan x="0" y="869.81" class="st10 st11 st14">CC Other Facilities</tspan><tspan x="0" y="1304.72" class="st10 st11 st14">NCI Facility</tspan><tspan x="0" y="1739.62" class="st10 st11 st14">NIAID Facility</tspan>
    </text>
    <circle id="Key_Icon_CCE_Facility" cx="5285.84" cy="9814.34" r="143.89" fill="#94762d" stroke="#000" stroke-width="2.5" stroke-miterlimit="10"/>
    <circle id="Key_Icon_CC_Pharmacy_Facilility" cx="5297.5" cy="10249.25" r="143.89" fill="#b5fd19" stroke="#000" stroke-width="2.5" stroke-miterlimit="10"/>
    <circle id="Key_Icon_CC_Other_Facilities" cx="5285.84" cy="10684.16" r="143.89" fill="#fb09bf" stroke="#000" stroke-width="2.5" stroke-miterlimit="10"/>
    <circle id="Key_Icon_NCI_Facility" cx="5305.28" cy="11119.07" r="143.89" fill="#0ff" stroke="#000" stroke-width="2.5" stroke-miterlimit="10"/>
    <circle id="Key_Icon_NIAID_Facility" cx="5285.84" cy="11553.98" r="143.89" fill="#c9363c" stroke="#000" stroke-width="2.5" stroke-miterlimit="10"/>
  </g> -->
</svg>
