<?xml version="1.0" encoding="utf-8"?>
<svg xmlns="http://www.w3.org/2000/svg">                   
    <g id="dPArrowsFID12">
        <g id="pin101_100_DP">
            <polygon id="pinBack101_100_DP" class="stGray" points="519.99 160.49 542.58 137.1 528.99 137.1 528.99 100.49 510.99 100.49 510.99 137.1 497.31 137.1 519.99 160.49" />
            <polygon id="pinColor101_100_DP" class="stWhite" points="519.99 156.19 535.53 140.1 525.99 140.1 525.99 103.49 513.98 103.49 513.98 140.1 504.39 140.1 519.99 156.19" />
        </g>
        <g id="pin103_101_DP">
            <polygon id="pinBack103_101_DP" class="stGray" points="477.61 104.44 454.22 81.84 454.22 95.44 417.61 95.44 417.61 113.44 454.22 113.44 454.22 127.11 477.61 104.44" />
            <polygon id="pinColor103_101_DP" class="stWhite" points="473.3 104.44 457.21 88.9 457.21 98.43 420.6 98.43 420.6 110.45 457.21 110.45 457.21 120.04 473.3 104.44" />
        </g>
        <g id="pin105_103_DP">
            <polygon id="pinBack105_103_DP" class="stGray" points="369.81 103.44 346.42 80.84 346.42 94.44 309.81 94.44 309.81 112.44 346.42 112.44 346.42 126.11 369.81 103.44" />
            <polygon id="pinColor105_103_DP" class="stWhite" points="365.5 103.44 349.41 87.9 349.41 97.43 312.8 97.43 312.8 109.45 349.41 109.45 349.41 119.04 365.5 103.44" />
        </g>
    </g>
</svg>